<svg data-name="Capa 1" xmlns="http://www.w3.org/2000/svg" width="100" height="100"><rect id="backgroundrect" width="100%" height="100%" x="0" y="0" fill="none" stroke="none"/><defs><style>.cls-1{fill:#fff;}</style></defs><g class="currentLayer" style=""><title>Layer 1</title><path class="cls-1" d="M100,100 H0 V0 h100 zm-5.21999979019165,-50.40999984741211 C80,34.75 65.04998779296875,19.839996337890625 50.21002197265625,5 L6,49 l44.54999923706055,45.279998779296875 z" id="svg_1" opacity="0"/><path d="M94.780029296875,49.59002685546875 l-44.2400016784668,44.66999816894531 L6,49 l44.220001220703125,-44 C65.04998779296875,19.839996337890625 80,34.75 94.780029296875,49.59002685546875 zm-25.1299991607666,22.200000762939453 l-12.380000114440918,-22.149999618530273 c4.199999809265137,-7.340000152587891 8.119999885559082,-14.199999809265137 12.3100004196167,-21.510000228881836 H30.760009765625 L43.34002685546875,50 c-4.300000190734863,7.360000133514404 -8.369999885559082,14.34000015258789 -12.760000228881836,21.84000015258789 z" id="svg_2" class="" fill-opacity="1" fill="#790914"/><path class="cls-1" d="M69.6500244140625,71.78997802734375 H30.58001708984375 c4.389999866485596,-7.5 8.460000038146973,-14.479999542236328 12.760000228881836,-21.84000015258789 l-12.579999923706055,-21.81999969482422 h38.81999969482422 c-4.190000057220459,7.309999942779541 -8.109999656677246,14.170000076293945 -12.3100004196167,21.510000228881836 zm-32.15999984741211,-40.33000183105469 l8,13.680000305175781 l4.789999961853027,-6.130000114440918 l4.929999828338623,6.260000228881836 l7.489999771118164,-13.8100004196167 zm25.09000015258789,36.220001220703125 l-7.5,-13.239999771118164 l-5,6.159999847412109 l-4.389999866485596,-6.269999980926514 l-8,13.350000381469727 z" id="svg_3" opacity="0"/><path class="cls-1" d="M69.6500244140625,71.78997802734375 H30.58001708984375 c4.389999866485596,-7.5 8.460000038146973,-14.479999542236328 12.760000228881836,-21.84000015258789 l-12.579999923706055,-21.81999969482422 h38.81999969482422 c-4.190000057220459,7.309999942779541 -8.109999656677246,14.170000076293945 -12.3100004196167,21.510000228881836 zm-32.15999984741211,-40.33000183105469 l8,13.680000305175781 l4.789999961853027,-6.130000114440918 l4.929999828338623,6.260000228881836 l7.489999771118164,-13.8100004196167 zm25.09000015258789,36.220001220703125 l-7.5,-13.239999771118164 l-5,6.159999847412109 l-4.389999866485596,-6.269999980926514 l-8,13.350000381469727 z" opacity="0" id="svg_7"/><path d="M37.489990234375,31.46002197265625 h25.260000228881836 l-7.489999771118164,13.8100004196167 L50.33001708984375,39 l-4.789999961853027,6.130000114440918 z" id="svg_4" class="" fill-opacity="1" fill="#790914"/><path d="M62.58001708984375,67.67999267578125 H37.719970703125 l8,-13.350000381469727 l4.389999866485596,6.269999980926514 l5,-6.159999847412109 z" id="svg_5" class="" fill-opacity="1" fill="#790914"/><polygon points="51.94 49.62 50.2 52.33 48.46 49.62 50.2 46.9 51.94 49.62" id="svg_6" class="" fill-opacity="1" fill="#790914"/></g></svg>