<svg xmlns="http://www.w3.org/2000/svg" width="100" height="100" style=""><rect id="backgroundrect" width="100%" height="100%" x="0" y="0" fill="none" stroke="none"/><defs><style>.cls-1{fill:#fff;}</style></defs><g class="currentLayer" style=""><title>Layer 1</title><path class="cls-1" d="M202.22222900390625,155.00000381469727 H102.22222900390625 V55.000003814697266 H202.22222900390625 zM152.22222900390625,150.46000289916992 c15.420000076293945,-15 30.309999465942383,-29.719999313354492 44.779998779296875,-44.560001373291016 L151.4222297668457,61.17000389099121 C136.64222717285156,75.33000183105469 121.94222831726074,90.27000427246094 107.09222888946533,105.4800033569336 C121.69222831726074,120.81000137329102 136.85223007202148,135.27000045776367 152.22222900390625,150.46000289916992 z" id="svg_1" opacity="0" fill="#961524"/><path d="M50,95.46c-15.38-15.19-30.54-29.65-45.14-45C19.72,35.27,34.42,20.33,49.2,6.17L94.79,50.9C80.32,65.74,65.43,80.45,50,95.46Zm.48-37.61c.14,0,.3-.07.42,0,3.77,1.62,3.5,4.78,3,8-.24,1.7-.22,3.36,1.4,4.47s3.52.77,5.15-.19c3.41-2,4.17-5.38,4.41-9s-.82-6.35-4.11-7.83a15.74,15.74,0,0,1-6.19-4.79,5,5,0,0,0-6.27-1.67A42.62,42.62,0,0,0,34,57.39c-1.74,2.06-1.63,5.88,0,8.39s5.3,4.14,7.71,3.55C46.51,68.16,50.69,62.71,50.49,57.85Zm6.11-32.1-1.23-.07c-1.28,4-3.45,7.68-3.4,12.11a11.62,11.62,0,0,0,2.46,7.42c1.37,1.68,3,3.34,5.48,2.55C62.13,47.05,62.68,45,63,43a13.67,13.67,0,0,0-1.6-8.66C59.86,31.46,58.21,28.62,56.6,25.75ZM42.46,27.41C38,32.38,37.33,38,37.24,43.82c0,2,.22,4.22,2.49,4.92S43.48,47.9,45,46.6a5.11,5.11,0,0,0,1.79-3.45C47.14,37.61,46.18,32.41,42.46,27.41ZM71.85,38.88C65.59,41,64.08,46.15,62.2,51a16,16,0,0,0,4.1,5.71c2.25,2.09,4.65,1.54,6-1.26A8.44,8.44,0,0,0,73,51.06C72.63,47.1,72.25,43.14,71.85,38.88Zm-42-.84c-2.84,4.65-2.69,9.71-2.24,14.8.18,2.08,1.68,2.67,3.56,2.54,2.48-.17,3.85-1.66,4.56-3.91C37.35,46.44,35.12,41.19,29.89,38Z" id="svg_2" opacity="1" fill="#790914" class="selected" fill-opacity="1"/><path class="cls-1" d="M50.49,57.85c.2,4.86-4,10.31-8.83,11.48-2.41.59-6.17-1.15-7.71-3.55s-1.72-6.33,0-8.39A42.62,42.62,0,0,1,48.34,46.88a5,5,0,0,1,6.27,1.67,15.74,15.74,0,0,0,6.19,4.79c3.29,1.48,4.34,4.4,4.11,7.83-.24,3.58-1,7-4.41,9-1.63,1-3.41,1.39-5.15.19s-1.64-2.77-1.4-4.47c.46-3.24.73-6.4-3-8C50.79,57.78,50.63,57.84,50.49,57.85Z" id="svg_3" opacity="0" fill="#961524"/><path class="cls-1" d="M56.6,25.75c1.61,2.87,3.26,5.71,4.8,8.62A13.67,13.67,0,0,1,63,43c-.32,2-.87,4-3.09,4.73-2.5.79-4.11-.87-5.48-2.55A11.62,11.62,0,0,1,52,37.79c0-4.43,2.12-8.12,3.4-12.11Z" id="svg_4" opacity="0" fill="#961524"/><path class="cls-1" d="M43.01555508375168,27.40999984741211 c3.7200000286102295,5 4.679999828338623,10.199999809265137 4.320000171661377,15.739999771118164 A5.110000133514404,5.110000133514404 0 0 1 45.55555599927902,46.599998474121094 c-1.5099999904632568,1.2999999523162842 -3.140000104904175,2.799999952316284 -5.260000228881836,2.140000104904175 s-2.5299999713897705,-2.880000114440918 -2.490000009536743,-4.920000076293945 C37.88555783033371,38 38.55555599927902,32.380001068115234 43.01555508375168,27.40999984741211 z" id="svg_5" opacity="0" fill="#961524"/><path class="cls-1" d="M71.85,38.88c.4,4.26.78,8.22,1.14,12.18a8.44,8.44,0,0,1-.73,4.38c-1.31,2.8-3.71,3.35-6,1.26A16,16,0,0,1,62.2,51C64.08,46.15,65.59,41,71.85,38.88Z" id="svg_6" opacity="0" fill="#961524"/><path class="cls-1" d="M29.89,38c5.23,3.15,7.46,8.4,5.88,13.43-.71,2.25-2.08,3.74-4.56,3.91-1.88.13-3.38-.46-3.56-2.54C27.2,47.75,27.05,42.69,29.89,38Z" id="svg_7" opacity="0" fill="#961524"/></g></svg>