<svg xmlns="http://www.w3.org/2000/svg" width="88.51000213623047" height="88.05999755859375" style=""><rect id="backgroundrect" width="100%" height="100%" x="0" y="0" fill="none" stroke="none"/><g class="currentLayer" style=""><title>Layer 1</title><g id="Capa_2" data-name="Capa 2" class="" fill-opacity="1" fill="#790914"><g id="Capa_1-2" data-name="Capa 1" fill="#790914"><path d="M0,44,44.19,0,88.51,44.31C73.72,58.87,58.84,73.54,44.11,88.06ZM35,27.84C24.89,31.7,18.53,38.05,12.36,45.17c8.78,11,18.31,20.26,33.32,19.29,13-.85,21.52-9.17,28.88-19L61.48,31.74c3,13,1.29,19.68-6.53,24.33a17.68,17.68,0,0,1-22-3C27.53,47.38,28,38.85,35,27.84Zm-2.8,11.85c-.33,9.46,5.06,15.73,13.7,15.94a13.37,13.37,0,0,0,13.92-13.2C60.2,34.16,54.69,28.25,46,28.34,36.26,28.45,30.86,30.37,32.21,39.69Z" id="svg_1" fill="#790914"/><path d="M38.58,44.23c6.87-.3,9.05-4.3,9.14-10.1,4.8,1,7,3.65,7,8.37s-3,6.73-7,7.65C43.26,51.19,40.56,48.85,38.58,44.23Z" id="svg_2" fill="#790914"/></g></g></g></svg>