<svg xmlns="http://www.w3.org/2000/svg" viewBox="0 0 89.19 89.1"><defs><style>.cls-1{fill:#7f121d;}</style></defs><g id="Capa_2" data-name="Capa 2"><g id="Capa_1-2" data-name="Capa 1"><path class="cls-1" d="M45.08,89.1,0,43.91,45.58,0,89.19,43.65Zm37-45.78L44.55,6.94,8,43.47,45.41,81.09Z"/><path class="cls-1" d="M65.26,55.28C69.2,46,69,40.52,64.35,32.13c-3.6,3-7.14,6-10.65,9-.89.76-1.64,1.61-1.26,3,1.49,5.61,3,11.23,4.36,16.88.31,1.29,1.2,1.65,3.33,1.8-3.15,2.94-5.72,5.06-7.94,7.5s-4.11,5.24-6.27,8L31.1,63.32c8.33,3.39,15.56,5,22.59,1.66L41.18,51.83c-4,3.18-8.25,6.28-11.6,10.4L11.48,43.78,27.14,30.09c1.33,2.23,4.43,4.67,7.42,8L45.26,21c-5-.35-8.88,1.5-11.18,2.5l11.4-11.64L56.11,23.3c-2.68-.4-5.2-3.38-9.16-2.39L50.4,37.05c3.9-.86,6.09-4,8.69-6.29s4.07-2.44,6.57.12C69.84,35.16,74.5,39,79.17,43.16L66.34,56Zm-34.71-1c2.67-1.82,5.5-3.45,7.61-6-1-1.08-1.42-2.46-3.1-2.78A29.23,29.23,0,0,0,30,53.66c-.39.1-.87.23-.52.72C29.57,54.52,30.18,54.3,30.55,54.24Zm-6.78-.76A57.73,57.73,0,0,0,32,41.66c-2.79-2.58-4.71-5.7-8.35-7.17A25.75,25.75,0,0,0,23.77,53.48Zm14-11.88,3.94,3.3C48,41,48,41,44.36,31.64A44.51,44.51,0,0,0,37.74,41.6ZM50.05,52.72c-.77-2.59-.6-4.74-2.09-6.48-1.2.87-2.6,1.18-2.71,2.79C46.47,50.34,47.41,51.91,50.05,52.72Z"/><path class="cls-1" d="M66.34,56c-.33.6-.74,1.18-1.43.54-.15-.14.22-.83.35-1.27Z"/></g></g></svg>