<svg xmlns="http://www.w3.org/2000/svg" width="87.69999694824219" height="87.91999816894531"><rect id="backgroundrect" width="100%" height="100%" x="0" y="0" fill="none" stroke="none"/><g class="currentLayer" style=""><title>Layer 1</title><g id="Capa_2" data-name="Capa 2" class="selected" fill-opacity="1" fill="#790914"><g id="Capa_1-2" data-name="Capa 1" fill="#790914"><path d="M43.83,0,87.7,43.91l-44.11,44L0,43.63Zm.38,34.58c4.28,0,8.56-.07,12.84,0,2.66.07,4.6-.47,4.52-3.67-.07-3,.27-6.71-3.78-6.87-9.2-.36-18.43-.31-27.64,0-3.71.12-4,3.45-3.9,6.32s1.37,4.46,4.63,4.29C35.31,34.41,39.77,34.58,44.21,34.58Zm16.84,19c-10.22,0-20.57-.1-30.9.14-1.14,0-3,1.84-3.21,3.07C26,61.58,28.08,64,33,64c7.07.12,14.15.06,21.22,0C62,64.05,63.72,61.49,61.05,53.6Zm19.4-14.86c-8.59,0-16.78.09-25,0-3.88-.06-7.15,1.83-7,5.24.09,2.19,3.56,5.86,5.75,6,8.6.71,17.29.29,26.2.29ZM7.19,49.89c8.75,0,17.09-.11,25.43,0,3.67.07,7-1.45,6.58-4.81-.26-2.3-3.66-5.86-5.89-6.05-8.59-.71-17.28-.29-26.12-.29Z" id="svg_1" fill="#790914"/></g></g></g></svg>