<svg xmlns="http://www.w3.org/2000/svg" viewBox="0 0 88.36 88.35"><defs><style>.cls-1{fill:#940913;}</style></defs><g id="Capa_2" data-name="Capa 2"><g id="Capa_1-2" data-name="Capa 1"><path class="cls-1" d="M0,44.42,44.41,0l44,44.22L44,88.35C29.55,74.66,14.87,59.7,0,44.42ZM7.25,42.8,26.78,62.38c.88-3,.07-6.4-1.64-9.73,2.42-.86,3.93.35,5.63,1.42s1.57,4.09,4.25,4.26c.92-6.27.64-7.07-5.14-15.29,3.69-1.43,6.26.5,8.79,2.66s3.11,5.78,5.11,9.68a18.12,18.12,0,0,0-.51-12.93c-1.66-4-5-6.7-8.84-9.75,6.42-.58,11.27.66,15,5.07,3.52,4.1,5.18,9.06,6.61,15.36,2.53-6.84-.67-11.5-2.82-16.76,7.8,1.52,9.06,7.49,10.47,14,2.24-5,1.79-9.31.26-13.59s-4.89-7.55-8.76-10.57c4.48-1.19,8.06.29,12,1.42L44.78,5.37Z"/></g></g></svg>