<svg xmlns="http://www.w3.org/2000/svg" viewBox="0 0 88.97 88.92"><defs><style>.cls-1{fill:#7e101a;}</style></defs><g id="Capa_2" data-name="Capa 2"><g id="Capa_1-2" data-name="Capa 1"><path class="cls-1" d="M63.72,67.88c1,.94-.07,1.44-.52,1.9-3.24,3.29-6.59,6.46-9.79,9.78-3,3.07-5.81,6.28-8.65,9.36L0,44.11,44.45,0,89,44.61,64.76,68.14c-.46.44-.81.23-1.16-.14V58.08c-5.54,0-10.44.2-15.31-.07-3.58-.2-5.41,1.33-5.39,4.64s1.79,5.39,5.58,5.28C53.55,67.77,58.64,67.88,63.72,67.88ZM44.6,25.28c-5.76-5.22-5.76-5.22-12,1.63-1.84-1.95-3.47-4.8-6.82-3.07-2.29,1.19-4,3-3.66,5.88,1.11,8.45,2.31,16.89,3.47,25.28a7.44,7.44,0,0,0,6-.07c-.16-6-.88-11.93.82-17.82,3.17,4.29,2.6,9.34,3.09,14.06.47,4.43,2.44,5.2,6.23,3.79.51-6,0-12,2.26-17.74,3.65,5.69.7,12.35,2.81,18.21,2.05.48,3.94.75,5.75-.14,1.55-6.1-.44-12.65,3.14-18.41,2.52,6,.25,12.34,1.53,18.38,2.6.85,5,.72,8.57-.08,0-9.67.26-19.51-.12-29.33-.17-4.12-3.67-5.14-6.95-2.57-.76.6-1.53,1.19-2.28,1.77C50.64,18.9,50.64,18.9,44.6,25.28Z"/></g></g></svg>