<svg xmlns="http://www.w3.org/2000/svg" width="87.75" height="88.01"><rect id="backgroundrect" width="100%" height="100%" x="0" y="0" fill="none" stroke="none"/><g class="currentLayer" style=""><title>Layer 1</title><g id="Capa_2" data-name="Capa 2" class="selected" fill-opacity="1" fill="#790914"><g id="Capa_1-2" data-name="Capa 1" fill="#790914"><path d="M43.44,88,0,44.37Q22,22.35,44.31,0L87.75,44.85Zm.11-18.3,1.19.13c.88-5.53,1.75-11.06,2.74-17.35L62.87,63.2l.65-.62-11-15.09L71.84,44.3l-.11-.78L52.67,40.59,63.49,25.36l-.63-.6L47.56,35.59c-1.15-6.39-2.16-12-3.17-17.68l-.79.18c-.94,5.73-1.87,11.47-2.93,17.94L25.94,25.55l-.78.75L35.6,40.86,16.86,44l.19,1,18.64,2.73C32,53,28.56,57.63,25.16,62.31l.76.73,14.8-10.5C41.79,59,42.67,64.36,43.55,69.71Z" id="svg_1" fill="#790914"/></g></g></g></svg>