<svg xmlns="http://www.w3.org/2000/svg" width="424" height="400" style=""><rect id="backgroundrect" width="100%" height="100%" x="0" y="0" fill="none" stroke="none" style="" class=""/><g class="currentLayer" style=""><title>Layer 1</title><g id="Capa_2" data-name="Capa 2" class="" fill-opacity="1" fill="#790914"><g id="Capa_1-2" data-name="Capa 1" fill="#790914"><path fill="#790914" d="M0,281.0612335205078 v-0.43893587589263916 c0.3467593789100647,-0.6320676803588867 0.7330228686332703,-1.2465777397155762 1.0314992666244507,-1.90059232711792 q12.404327392578125,-26.823373794555664 24.817432403564453,-53.63357162475586 a10.973396301269531,10.973396301269531 0 0 1 2.3878111839294434,-3.3139657974243164 q38.3191032409668,-35.843505859375 76.70404052734375,-71.61677551269531 c9.12547779083252,-8.524134635925293 18.527481079101562,-16.784908294677734 27.214025497436523,-25.721641540527344 c27.7583065032959,-28.530832290649414 61.35884475708008,-40.478668212890625 100.3626708984375,-33.126495361328125 c44.71000289916992,8.431958198547363 73.17060852050781,35.992740631103516 86.2991943359375,79.37716674804688 c1.0841716527938843,3.5904955863952637 1.6767350435256958,7.33022928237915 2.5589962005615234,11.289429664611816 c0.8778717517852783,-0.8164207339286804 1.6240627765655518,-1.479213833808899 2.3439176082611084,-2.1639537811279297 c5.333071231842041,-5.09165620803833 10.635416030883789,-10.218427658081055 15.999212265014648,-15.274968147277832 c7.101983070373535,-6.6981611251831055 14.261026382446289,-13.330483436584473 21.37178611755371,-20.015474319458008 c1.9839903116226196,-1.8610880374908447 4.06454610824585,-3.4675934314727783 6.781559467315674,-4.191837787628174 A55.569278717041016,55.569278717041016 0 0 0 373.4422302246094,138.3500099182129 q24.06685447692871,-9.366891860961914 48.12493133544922,-18.75572967529297 c0.5750059485435486,-0.2238573133945465 1.189516305923462,-0.3379806578159332 2.335139036178589,-0.6540144085884094 c-1.316807508468628,3.02426815032959 -2.4229259490966797,5.6052117347717285 -3.5948843955993652,8.151039123535156 Q409.2418518066406,151.10987854003906 398.1148376464844,175.12405395507812 a10.012126922607422,10.012126922607422 0 0 1 -2.115671157836914,2.997932195663452 c-4.643941402435303,4.3893585205078125 -9.380059242248535,8.73043441772461 -14.045948028564453,13.102235794067383 q-15.037942886352539,14.024003028869629 -30.05394172668457,28.091896057128906 q-12.061958312988281,11.263094902038574 -24.14147186279297,22.539358139038086 q-15.12572956085205,14.20396614074707 -30.19001007080078,28.447433471679688 c-6.347012996673584,5.960749626159668 -12.799369812011719,11.763481140136719 -19.984750747680664,16.7761287689209 c-14.23469066619873,9.933117866516113 -29.689620971679688,16.802465438842773 -46.86079788208008,19.611652374267578 c-4.3893585205078125,0.7198548316955566 -8.822610855102539,1.0446674823760986 -13.238306045532227,1.5494436025619507 h-8.778717041015625 c-0.7900845408439636,-0.10973396897315979 -1.5713902711868286,-0.2809189558029175 -2.3614749908447266,-0.32920193672180176 c-19.72138786315918,-1.286082148551941 -38.0250129699707,-7.053699493408203 -54.37537384033203,-18.154386520385742 c-21.771221160888672,-14.783360481262207 -36.74332046508789,-34.759334564208984 -44.20962142944336,-60.134212493896484 c-1.286082148551941,-4.3674116134643555 -2.1946792602539062,-8.848947525024414 -3.3139657974243164,-13.462162971496582 c-0.6540144085884094,0.570616602897644 -1.2597459554672241,1.057835578918457 -1.8259730339050293,1.5889478921890259 Q81.90104675292969,237.11058044433594 61.15693283081055,256.42376708984375 a9.410784721374512,9.410784721374512 0 0 1 -2.8004109859466553,2.010326385498047 Q29.198013305664062,269.8025207519531 0,281.0612335205078 zM272.2236328125,198.38766479492188 c0.11412331461906433,-32.09060287475586 -26.43710708618164,-58.81740951538086 -58.575992584228516,-58.92713928222656 c-33.49519729614258,-0.12729139626026154 -60.0727653503418,25.985004425048828 -60.1824951171875,59.11587905883789 c-0.10534460842609406,32.6304931640625 26.5248966217041,59.25634002685547 59.379241943359375,59.383628845214844 S272.1051330566406,231.52732849121094 272.2236328125,198.38766479492188 z" id="svg_1"/><path d="M237.1438751220703,222.86712646484375 H188.55369567871094 V174.28569793701172 h48.59020233154297 z" id="svg_2" fill="#790914"/></g></g></g></svg>