<svg xmlns="http://www.w3.org/2000/svg" width="415" height="412" style=""><rect id="backgroundrect" width="100%" height="100%" x="0" y="0" fill="none" stroke="none" style="" class=""/><g class="currentLayer" style=""><title>Layer 1</title><g id="Capa_2" data-name="Capa 2" class="" fill-opacity="1" fill="#790914"><g id="Capa_1-2" data-name="Capa 1" fill="#790914"><path fill="#790914" d="M173.81472778320312,412.2433776855469 c-9.725410461425781,-1.6525760889053345 -19.558238983154297,-2.784590721130371 -29.167966842651367,-4.957728385925293 c-73.53963470458984,-16.567073822021484 -131.3798065185547,-79.0179214477539 -142.50990295410156,-153.61521911621094 C-11.827409744262695,160.23377990722656 43.87266540527344,72.07711029052734 133.9793701171875,45.049224853515625 C240.33090209960938,13.14624309539795 351.8880615234375,81.5628890991211 371.8263854980469,190.922119140625 C390.70709228515625,294.56341552734375 320.5965270996094,393.61883544921875 216.86431884765625,409.9380187988281 c-5.263454914093018,0.8262880444526672 -10.559961318969727,1.5451586246490479 -15.83994197845459,2.3053436279296875 zM304.0707702636719,108.02890014648438 a22.80554962158203,22.80554962158203 0 0 0 -1.586472988128662,-1.8674110174179077 A165.05104064941406,165.05104064941406 0 0 0 113.06602478027344,77.14225006103516 c-15.765575408935547,7.99020528793335 -30.118200302124023,17.971765518188477 -42.32247543334961,30.886648178100586 c-0.7188705801963806,0.6197160482406616 -1.5038442611694336,1.1815918684005737 -2.156611680984497,1.8674110174179077 C40.608829498291016,139.27911376953125 24.78541374206543,174.1815185546875 22.397441864013672,214.6779022216797 C19.74505615234375,260.2807312011719 33.94894790649414,300.4052734375 64.06714630126953,334.8119201660156 C66.09981536865234,337.1255187988281 68.57868194580078,339.1251525878906 70.82618713378906,341.2569580078125 a20.475418090820312,20.475418090820312 0 0 0 1.9169882535934448,2.561492919921875 c61.39320373535156,59.914146423339844 160.8039093017578,61.897239685058594 224.4611358642578,4.461955547332764 c2.4127612113952637,-2.173137664794922 4.544584274291992,-4.668527603149414 6.808613300323486,-7.015185356140137 a40.57900619506836,40.57900619506836 0 0 0 3.3960440158843994,-2.8589565753936768 c48.123016357421875,-50.312679290771484 59.20354080200195,-126.92610931396484 27.267505645751953,-188.790283203125 C326.686279296875,134.1643829345703 316.7790832519531,120.05965423583984 304.0707702636719,108.02890014648438 z" id="svg_1"/><path d="M414.611572265625,37.86051940917969 c-0.18178336322307587,1.9004625082015991 -0.4957728385925293,3.7926621437072754 -0.5205614566802979,5.693124294281006 q-0.6527675986289978,47.59418869018555 -1.247694969177246,95.18012237548828 c-0.04957728087902069,3.9413938522338867 0,7.891050815582275 0,11.832444190979004 l-1.0659115314483643,0.3718295991420746 L265.45831298828125,0.4379326403141022 A11.344934463500977,11.344934463500977 0 0 1 267.54058837890625,0 q72.5150375366211,1.0493857860565186 145.0300750732422,2.156611680984497 a18.82284164428711,18.82284164428711 0 0 1 2.040931463241577,0.2396235316991806 z" id="svg_2" fill="#790914"/><path d="M70.669189453125,107.88016510009766 q84.00870513916016,0 168.0256805419922,0.05784016475081444 q32.73752975463867,0 65.47505950927734,-0.05784016475081444 v233.50900268554688 c-1.7765194177627563,0.05784016475081444 -3.5613014698028564,0.15699473023414612 -5.346083641052246,0.15699473023414612 H76.01527404785156 c-1.7765194177627563,0 -3.5613014698028564,-0.10741744190454483 -5.346083641052246,-0.15699473023414612 zM187.40716552734375,331.07708740234375 A106.28543853759766,106.28543853759766 0 0 0 293.576904296875,224.8908233642578 c0.04131440445780754,-58.66645050048828 -47.42066955566406,-106.26065063476562 -105.98796844482422,-106.30194854736328 c-58.839969635009766,-0.04131440445780754 -106.5002670288086,47.58592987060547 -106.3928451538086,106.32673645019531 S128.897705078125,331.10186767578125 187.40716552734375,331.07708740234375 zM297.4604797363281,114.74662017822266 H204.8418426513672 C255.40240478515625,126.05024719238281 285.8924255371094,156.56504821777344 297.4604797363281,206.9686279296875 zM77.46127319335938,206.52243041992188 c11.386248588562012,-49.833431243896484 41.81017303466797,-80.40608978271484 92.2137451171875,-91.71797180175781 H77.46127319335938 zM297.3199768066406,334.7705993652344 V243.10220336914062 c-11.568032264709473,50.02347946166992 -41.96717071533203,80.3978271484375 -92.11459350585938,91.66839599609375 zm-219.79261779785156,-91.71797180175781 V334.64666748046875 H168.84873962402344 C119.13097381591797,323.2108459472656 88.64095306396484,292.77862548828125 77.49433135986328,243.01132202148438 z" id="svg_3" fill="#790914"/><path d="M138.93710327148438,273.30303955078125 V176.40423583984375 H235.72023010253906 V273.30303955078125 z" id="svg_4" fill="#790914"/></g></g></g></svg>