<svg xmlns="http://www.w3.org/2000/svg" width="461" height="425"><rect id="backgroundrect" width="100%" height="100%" x="0" y="0" fill="none" stroke="none" style="" class=""/><g class="currentLayer" style=""><title>Layer 1</title><g id="Capa_2" data-name="Capa 2" class=""><g id="Capa_1-2" data-name="Capa 1"><path fill="#790914" d="M18.16672170656375,425.1865835663011 c0.8528977632522583,-1.7057955265045166 1.356107472039625,-3.693047249811343 2.507519472764841,-5.185618335502795 c2.985142171382904,-3.863627046477802 4.426539440082422,-8.145173801736405 2.763388761071184,-12.733763865639958 c-2.9936711408815597,-8.281637313714896 -0.17910852469094074,-14.567493731277636 5.833820830787317,-20.119858365262644 c1.7654983129951063,-1.6290346993432792 3.675989310814032,-3.292185276681181 4.8700462607058626,-5.322081847481286 a28.043279366727347,28.043279366727347 0 0 0 3.6589313718167205,-8.691027849650368 c0.8528977632522583,-4.5971188300555355 2.004309662304138,-6.226153834418824 6.661131482196936,-6.652602716044953 c1.407281289031559,-0.12793466957150557 2.831620517060429,-0.13646363907016124 4.2644888162612915,-0.17910852469094074 c8.801904656479564,-0.23028240522871002 16.3415210137714,-3.0704318663694607 21.928000712364337,-10.2347731590271 c1.9957806928054822,-2.558693289756775 4.102438192440161,-5.160031630353501 8.16223133404037,-3.1813086731986573 c0.8528977632522583,0.40086194771182804 2.7463308220738725,-0.4690937799560757 3.624815493822098,-1.3049335533743545 c19.966336507593496,-18.942858540981433 39.90708712342439,-37.89424788158158 59.70284342765808,-57.050330863376075 a11.386185464772325,11.386185464772325 0 0 0 2.8913235068976917,-7.138754180814999 c0.21322444081306458,-4.742111514879355 1.7569693434964506,-8.341339896858813 5.415900715313171,-11.437358875070913 c4.6482926470474695,-3.9318588024670476 8.733672900490319,-8.528977632522583 13.458726476372362,-12.375546740003074 a15.787137793012107,15.787137793012107 0 0 1 8.187818852576356,-3.6077575548247864 a19.369307422607562,19.369307422607562 0 0 0 12.870227377618448,-5.484132471302416 c6.823182106018066,-6.5417259092157565 14.013110510518345,-12.793466448783875 20.247792704395806,-18.39700449306747 c-9.603629009433234,-10.081251301357952 -18.63581645241652,-20.08574167388133 -28.222387116159098,-29.5358504524188 Q112.5825047492981,143.0309522945663 47.941382491558215,79.73741006446744 a45.79207973773691,45.79207973773691 0 0 1 -7.172870058809622,-9.381875395774841 C27.659474722554478,47.94991329117693 14.721015588946784,25.493113623042518 1.7057955265045166,3.061902896870805 C1.3305204618703215,2.3881136964369887 0.9552454989094628,1.7057955265045166 0,0 C9.595099836587906,5.364726898321237 18.175250879409077,10.2347731590271 26.79804778645689,14.96835509436778 c14.499261975288391,8.008710289757914 29.134987462555273,15.838311203310695 43.55748850900909,24.017600883041723 A56.57271019822474,56.57271019822474 0 0 1 81.8781852722168,47.574636193076 Q159.8756831187984,123.67017567157745 237.67703113799143,199.91923050065452 c0.6993761597664516,0.690847190267796 1.441397268699518,1.3475785025409692 2.473403594770218,2.302824001450432 c5.330611020326614,-5.6035384509769415 11.676170021033272,-10.081251301357952 12.682589641954678,-18.849040893229585 c0.3752750137975269,-3.2836563071825253 2.908381445895003,-6.61848683805033 5.2026762745001065,-9.296585294094939 a69.51969850467776,69.51969850467776 0 0 1 10.831801430626342,-10.175070575883183 a15.95771636959853,15.95771636959853 0 0 1 8.324282364554847,-3.2495404291879026 c11.019439166290113,-0.46056481045742004 17.962026438596013,-7.360507794473392 17.41617239068205,-18.200838397945063 c-0.19616648910658618,-4.059793548293555 1.6205057298446235,-6.43084910238656 5.373256071166566,-7.5310871844465055 c1.3390495330423136,-0.39233297821317237 2.6951570050819385,-0.6993761597664516 3.897742924472425,-1.0064193159013968 c0.7761369869276891,-3.8039240566405397 1.125825092229249,-7.522558011601177 2.3113529709490876,-10.959736583146196 c2.788975669567151,-8.085470405205797 7.786956676099521,-10.93414906461021 15.95771636959853,-9.134535076967154 c3.49688074799559,0.7676079665923652 5.970284342765808,-0.34115911038457014 6.5928997262076905,-3.4712940428462957 c1.4755131466941407,-6.874356329703346 2.2687081234558093,-13.885176171385183 3.5821704429821466,-20.785119206237823 a13.015220062442268,13.015220062442268 0 0 1 2.481932564268874,-5.774117840950055 c4.912691311545814,-5.850878769784629 10.2347731590271,-11.377656291926996 15.147464470572913,-17.220006295559642 a34.47412602895383,34.47412602895383 0 0 0 4.426539440082422,-7.224044282494901 c4.5971188300555355,-9.381875395774841 3.138663825705379,-15.514210769055126 -5.322081847481286,-22.098580915724142 c1.8252013028323688,-2.1407733776293014 3.9318588024670476,-4.093909426288178 5.39884277631586,-6.439378275231888 c2.814562578063118,-4.511829135068979 5.211205447345435,-9.270998588945645 7.897833482928718,-13.859588652849197 c0.7761369869276891,-1.3134625228730101 1.8593171808269915,-3.2580693986865583 2.9936711408815597,-3.411591053009033 c6.439378275231888,-0.8528977632522583 11.428829702225585,-4.068322314445538 15.599500870735028,-8.742202073335648 c1.6205057298446235,-1.8252013028323688 3.113076917209412,-2.021367601301449 5.11738657951355,-0.8528977632522583 c10.789156379786391,6.345559407400003 20.60600983003269,13.646364212036133 25.314005873610768,25.91103333182332 c0.3582170493818815,0.9211296209148401 0.7249631190990868,1.8422592418296801 1.1684699397225273,2.729272883076561 c1.9872517233068265,4.034206436450916 3.0960189782121006,4.332720572250537 6.823182106018066,1.8934330588216142 a20.79364675230977,20.79364675230977 0 0 0 2.0384257436454334,-1.5266869636860747 c1.1940568482184943,-0.9978903464027411 2.353997818442366,-2.0298967741467777 3.8380399346351624,-3.317772388523821 c-2.3966426659356443,-2.0128386318027935 -4.5971188300555355,-3.9659746804616702 -6.89994303485264,-5.782647013795383 c-2.0554836826427447,-1.6205057298446235 -2.1578313166266128,-2.8742653645537075 0,-4.690937697887421 c3.539525798835541,-3.0192580493775267 6.882884689161983,-6.277327651410758 10.158012230192526,-9.586570663742577 c1.6034477908473121,-1.6290346993432792 2.840149486559085,-1.6375636688419348 4.153612009432095,0.12793466957150557 c1.7569693434964506,2.3710557574396773 3.49688074799559,4.7676986267219945 5.6035384509769415,7.676079869270325 c2.072541621640056,-2.481932564268874 3.897742924472425,-4.571532124906241 5.612067217128924,-6.7464211771834925 s3.113076917209412,-2.277237092954465 5.015038945529682,0.05117386465131046 a99.08966239493111,99.08966239493111 0 0 0 8.989542392143335,9.552454785747955 c2.209005133618547,2.046954713144089 2.0640126521414004,3.368946205515755 -0.2899852425559679,4.972393894689731 s-4.52888707406629,3.309243419025165 -7.113167475665705,5.2026762745001065 c2.6269250457460203,2.174889255623924 4.887104199703174,4.068322314445538 7.164340885964293,5.970284342765808 c1.8593171808269915,1.5266869636860747 1.8593171808269915,2.754859791572528 -0.08528977759614254,4.418010267237094 c-3.5309966259902126,3.0192580493775267 -6.917000567156606,6.243211773416135 -10.175070575883183,9.560983958593283 c-1.8081431604883846,1.8422592418296801 -3.0704318663694607,1.5863898518500008 -4.452126145231716,-0.30704320697161336 c-1.7057955265045166,-2.379584726938333 -3.5224678598382297,-4.733582748727372 -5.270908030489352,-7.096109129975048 c-10.345649965856296,7.4116812047719804 -10.149483057347197,10.004490372523378 0.8528977632522583,15.147464470572913 c11.573822387049404,5.415900715313171 17.501462492361952,15.667732626724273 22.507971451659614,26.618938410251758 c0.3496880798832258,0.7590789970937095 -0.24734034422602136,2.4648746252715625 -0.9637744684081184,3.087489805366772 c-5.040625650678976,4.383894389242471 -9.134535076967154,9.262469416100316 -10.2347731590271,16.136825745803662 a2.8486784560577405,2.8486784560577405 0 0 1 -1.8252013028323688,1.9104909978189255 c-9.091890026127203,1.176998909221183 -15.616557589652302,7.0278773739858025 -22.337392875073192,12.239083228024583 c-0.46056481045742004,-0.15352160348580668 -0.8528977632522583,-0.16205057298446235 -0.9552454989094628,-0.34115911038457014 c-5.074741528673599,-7.991651944067257 -11.480003925910864,-10.038607063904692 -20.776590033392495,-6.251740539568118 C394.2519910633564,115.37148407910536 386.362686753273,121.96438014507294 378.9424658016287,128.94961490837886 c-2.473403594770218,2.328410909946399 -4.827401209865911,3.1045479477107563 -8.196347212034993,3.1983666121959686 a175.38137122210173,175.38137122210173 0 0 0 -19.787228758161746,1.9446068758135482 c-3.241011459689247,0.4690937799560757 -4.6482926470474695,2.6951570050819385 -4.068322314445538,6.234682600570807 c1.3646364415382806,8.418100825693386 -0.6055573936079028,11.769989295558503 -8.528977632522583,15.062174368893011 c-1.3049335533743545,0.5458545562806449 -2.686628035583283,1.2964045838756988 -4.025677263605587,1.2878756143770431 c-5.4244298881585,0 -9.543925612902626,1.3390495330423136 -11.64205414303865,7.138754180814999 c-0.4690937799560757,1.3134625228730101 -4.119496131437472,2.3454688489437103 -6.132334966586939,2.098128530136023 c-9.049244975287252,-1.1002380820599456 -18.013201475667984,5.671770206966187 -18.524938832200633,14.797776517781358 c-0.2643983086416668,4.682408525042092 -1.6290346993432792,8.528977632522583 -5.432958654310482,11.428829702225585 a43.49778592586517,43.49778592586517 0 0 0 -5.884994647779251,5.526777522142368 c-4.520358307914307,5.11738657951355 -10.098309647048609,7.326391916478769 -16.810614132850787,8.844549707319516 c-5.543835461139679,1.2537597363824204 -10.388295016696247,5.629125156126236 -16.307405949163467,9.066303320977909 l76.06995358673885,74.6285542845726 c0.9381875599121514,-0.8017238954236561 1.799614190989729,-1.4499262381981737 2.558693289756775,-2.209005133618547 c4.563002952060913,-4.52888707406629 4.563002952060913,-4.545945013063601 9.296585294094939,0.14499262127798396 c2.9169104153936587,2.8998524763963474 5.7058860849608095,5.970284342765808 8.759260419026305,8.691027849650368 a11.769989295558503,11.769989295558503 0 0 1 3.718634361653983,12.341430862008451 a71.6434121131897,71.6434121131897 0 0 1 -3.829510761789834,10.772098847482425 c-1.9531358453122039,4.55447418590893 -0.40086194771182804,10.524758528674738 4.332720572250537,12.273199106019206 A18.30318521854224,18.30318521854224 0 0 1 365.8931404352188,343.35957007760953 c0.6823182207691403,1.7057955265045166 2.8913235068976917,3.1045479477107563 4.7165248097300605,3.9659746804616702 a20.37572704352897,20.37572704352897 0 0 1 8.622796093661123,7.812543381248815 c1.7057955265045166,2.661040923740643 4.972393894689731,4.2644888162612915 7.360507794473392,6.558783848213068 a32.887738922283916,32.887738922283916 0 0 1 5.11738657951355,5.765589074798072 c1.2708176753797318,1.9616648148108595 1.9104909978189255,4.332720572250537 2.840149486559085,6.533196736370428 c15.121876952036928,-7.522558011601177 22.62737824472083,-6.823182106018066 31.736324989765308,2.7975046390658065 c8.767788778484942,9.24541188379635 8.853078880164844,16.657093901955022 0.3838039832961826,31.88131930136251 c5.219734213497418,6.823182106018066 5.458545766153122,8.273108140869567 1.8337302723310245,11.769989295558503 c-3.2836563071825253,3.1813086731986573 -4.8700462607058626,2.8913235068976917 -10.917091532306245,-1.8593171808269915 l-13.765769378323967,6.601428492359673 h-7.676079869270325 a4.622705941898175,4.622705941898175 0 0 0 -0.9808324074054298,-0.7249631190990868 c-17.501462492361952,-6.823182106018066 -22.507971451659614,-20.162502602715904 -13.646364212036133,-36.4784377247247 c0.05970284368184142,-0.11087670515586012 0,-0.28145627305731225 0,-1.0746511735639785 c-1.9275489368162368,-0.8102528649223117 -4.2644888162612915,-1.4499262381981737 -6.200566722576184,-2.678099066084627 a34.37177920835666,34.37177920835666 0 0 1 -5.859407535936612,-4.946807189540436 c-2.3198819404477433,-2.3454688489437103 -4.375365623090488,-4.955335955692419 -6.627015604202313,-7.377565326777358 c-2.6269250457460203,-2.8230915475617735 -5.356198132169254,-5.543835461139679 -8.008710289757914,-8.341339896858813 c-1.518157994187419,-1.6034477908473121 -2.678099066084627,-4.017148497453604 -4.52888707406629,-4.7676986267219945 c-5.177089569350812,-2.1066574996346787 -8.68249949019173,-5.262379264337369 -10.755040501791768,-10.627106162658606 c-1.9616648148108595,-5.066212762521616 -7.949006893227306,-6.609957665205002 -12.929929960762365,-4.2644888162612915 a66.05692916105,66.05692916105 0 0 1 -7.855188432088767,3.2239535206919356 c-5.970284342765808,1.9531358453122039 -11.377656291926996,1.4158102585302146 -15.829782030465367,-3.7527502396486057 c-2.498990503266185,-2.882794537399036 -5.509719583145056,-5.322081847481286 -8.247521435720273,-7.991651944067257 c-4.426539440082422,-4.332720572250537 -4.400952328239782,-4.341249745095865 -0.2899852425559679,-8.68249949019173 c0.8528977632522583,-0.8528977632522583 1.5778608823513451,-1.8507882113283358 2.456345655772907,-2.8913235068976917 l-78.28748646977601,-76.62433192717799 c-7.5566738895958,8.16223133404037 -14.857479100925275,15.710376864177533 -21.697719552634,23.65938375740484 A19.19019967317581,19.19019967317581 0 0 0 192.7975419860104,279.7504663467407 c-0.7079051292651073,4.1109673652854894 -1.9275489368162368,7.496971306451883 -5.160031630353501,10.303004915016345 c-4.494771196071667,3.897742924472425 -8.853078880164844,7.983122771221929 -12.99816171675161,12.256140760328549 c-3.1045479477107563,3.1983666121959686 -6.567312614365051,4.426539440082422 -11.002380820599456,4.452126145231716 c-2.609867106748709,0 -5.884994647779251,0.7676079665923652 -7.718724920110276,2.4478164829275784 c-20.341611978921037,18.524938832200633 -40.46999951702901,37.2886912505237 -60.55574119091034,56.05244204207338 c-0.8528977632522583,0.8528977632522583 -1.8593171808269915,2.661040923740643 -1.518157994187419,3.5139386869929012 c1.6205057298446235,4.102438192440161 -0.8528977632522583,6.115277027589627 -3.6077575548247864,7.991651944067257 c-7.676079869270325,5.211205447345435 -11.010909993444784,12.67406046910935 -11.650583315883978,21.63801696949008 a41.79199039936066,41.79199039936066 0 0 1 -0.6823182207691403,5.0491548235243044 c-0.6140864139432267,3.2068955816946243 -2.4051716354343,5.11738657951355 -5.876465474933923,4.83593038271124 c-4.2644888162612915,-0.3582170493818815 -7.676079869270325,1.2622887058810761 -10.814743898322376,4.025677263605587 c-2.558693289756775,2.2601791539571536 -5.270908030489352,4.307133867101243 -7.906362655774046,6.464964980381183 c-4.2644888162612915,3.462764870000967 -8.767788778484942,4.972393894689731 -14.166632368187493,2.729272883076561 c-7.164340885964293,-2.9680842323855927 -13.569603283201559,-1.441397268699518 -19.2413730834744,3.6504026056647376 zM375.9999841354329,47.711099705054494 c4.622705941898175,-0.10234772930262093 5.876465474933923,0.9296585904134957 5.8082337189446775,4.904162138700485 c-0.08528977759614254,4.324191806098554 1.8337302723310245,6.354088173551986 6.217624661573495,6.601428492359673 c8.580151856207863,0.48615171895338705 15.923601304990598,-8.093999578051125 13.467255649217691,-16.46945535290456 a31.625450623096185,31.625450623096185 0 0 0 -5.970284342765808,-10.56740357951469 c-4.460655318077045,-5.484132471302416 -10.072722941899315,-7.079051597671082 -15.011000958594423,-5.11738657951355 c-5.441487827155811,2.1919471946212354 -10.192128108187148,9.67186076542248 -9.987432840219412,15.667732626724273 C370.63524991663144,46.210001073291096 372.1960673992726,48.06931845746476 375.9999841354329,47.711099705054494 zm40.342063551122465,42.96899022364187 c-0.3496880798832258,4.042735202602898 1.441397268699518,6.064103210597693 5.8423495969393,5.740001962955432 a18.371418601304867,18.371418601304867 0 0 0 13.322262964393872,-6.652602716044953 c2.9680842323855927,-3.6077575548247864 3.5651125039848353,-7.676079869270325 1.5352159331847304,-11.940568685531616 a23.37792756060253,23.37792756060253 0 0 0 -13.868117825694526,-12.43524932314699 c-7.727254092955604,-2.609867106748709 -15.880957067537338,2.4051716354343 -17.475874973825967,10.405352549000213 c-1.0490642650680115,5.245321325340058 1.2281728278864534,8.281637313714896 6.516138797373117,8.648383612197108 C416.0520558098142,84.71833638554926 416.845244482829,87.08086032663687 416.34203792591506,90.68008992869636 zm-0.34115911038457014,-44.7344883332903 l-1.6460926383405905,0.5032096579506984 c0.19616648910658618,1.8081431604883846 -0.19616648910658618,4.102438192440161 0.7761369869276891,5.270908030489352 c0.7590789970937095,0.9211296209148401 3.1983666121959686,0.46056481045742004 4.887104199703174,0.6055573936079028 l0.5202676477846779,-1.466984177195485 zM330.2249497291996,146.45108065428758 l0.8528977632522583,1.6290346993432792 c1.9446068758135482,-0.8528977632522583 4.22184376542134,-1.4243392280288703 5.714414851112792,-2.7975046390658065 c0.9637744684081184,-0.9040715802441923 0.7931949259250004,-3.036315988374838 1.125825092229249,-4.614176769052847 l-1.0490642650680115,-0.3752750137975269 zM315.0092567561842,130.49335777759552 l7.27521769279349,-6.917000567156606 C316.4677046434008,122.18612887841118 314.03696684083116,124.4719016513045 315.0092567561842,130.49335777759552 z" id="svg_1"/></g></g></g></svg>