<svg xmlns="http://www.w3.org/2000/svg" width="459" height="392"><rect id="backgroundrect" width="100%" height="100%" x="0" y="0" fill="none" stroke="none" style="" class=""/><g class="currentLayer" style=""><title>Layer 1</title><g id="Capa_2" data-name="Capa 2" class=""><g id="Capa_1-2" data-name="Capa 1"><path fill="#790914" d="M215.87946978240143,367.7291793072436 c1.3596603203712618,-9.431169748306274 2.3184959339347273,-18.901635437612867 4.220448372424414,-28.199198386900434 c1.1946148197950208,-5.808028598398863 -0.6287446592561103,-10.122788953124711 -4.2125892591765535,-14.775498672728872 C206.0789115928983,350.26579569724163 189.32287290943077,370.17341262102127 168.97512465715408,387.29098475480896 l-1.265348619140589,-0.3929654061794281 q2.7428985426276284,-10.21710056066513 5.501515686511993,-20.394905180329943 c1.3753789216279984,-5.155706084102775 2.9315219450889742,-10.279974965692077 3.9846693535733664,-15.506414568069658 c2.530697238281178,-12.5748929977417 4.809896481693556,-25.1497859954834 7.183407894787877,-37.7246789932251 c0.10217100185904116,-0.5737295080124056 0.11003031419869114,-1.171036917909916 0.22791992902575053,-2.5464158395379144 c-20.724996181482425,27.413267574541578 -38.40057997154781,56.22549103569372 -62.47363859547613,80.88799776889118 c2.0198421352957183,-8.25227352976799 3.638859751164148,-15.718616247177124 5.72157647886732,-23.122084559559312 c1.7369071252939534,-6.114541885046748 3.96895075231663,-12.095475472030728 6.08310430777226,-18.076408684253693 c1.8940933252418262,-5.391485477714838 3.733171358704567,-10.814408157943149 5.9259182952048945,-16.08014370132105 c3.465954762579031,-8.299429708299215 6.766864024581821,-16.716748738643446 10.916579253492444,-24.670367720250397 c9.297561450243506,-17.832770552154784 19.08240066372889,-35.414043484201784 28.655036699062748,-53.09748376418793 a6.043807992010926,6.043807992010926 0 0 0 0.9195390167313704,-3.6781560669254816 c-2.2241841390138006,2.8529289388052916 -4.519102171063423,5.650842585831498 -6.648974702536805,8.574505042911596 C159.04881465950893,281.5204265808243 144.73702128217155,301.7974319458008 129.67858403921127,321.563587079685 c-5.077113077819092,6.664692929032526 -11.788962185382843,12.197646567580023 -18.076408684253693,17.80133260011928 c-5.202861887872984,4.605554665355982 -11.003031373023987,8.558786816415875 -17.11757363283175,13.25865346407329 c5.5958272940524125,-10.531472585799861 10.73581477689845,-20.19842247724023 15.867943521257644,-29.865370869636536 l-1.0138507179620433,-0.683759810499815 C88.70015196251461,338.8855088997916 66.80411905050278,353.6688655614853 42.00014153314555,363.8388121921853 c19.145275068755836,-14.500424087638521 37.858285792243805,-29.417390546439037 53.04246884716986,-48.523369674194555 l-23.279271321648707,3.04155215388613 c19.569676927926707,-17.699162254092016 30.30549320386922,-40.491155812498846 45.167444745651665,-60.28875189650671 l-0.9116797161030021,-0.8645239123327926 c-5.415063192219435,5.312892471431155 -10.869423074961219,10.586488252339961 -16.221611487392693,15.954394891267157 a48.7670063072494,48.7670063072494 0 0 0 -5.391485477714838,6.216712605835028 c-10.62578494286231,15.019138303871841 -25.857124925841617,23.66437723981926 -42.32237304628916,30.509833895923748 c-3.5524072568715894,1.4696906228586712 -7.560654324949553,2.043420037180823 -11.419574493708012,2.538556538909546 c-7.859308123588562,1.005991417333675 -15.78149065220407,1.6897513215237439 -23.797985537882028,2.5149786370244414 c22.006062746047974,-13.172200595019717 41.85867374707391,-28.91439530622347 57.22362052907192,-49.83587269175155 c-11.788962185382843,6.869035120131116 -23.908015371918168,12.464862414183528 -37.68538305222478,13.76164870428886 C53.90699154152935,269.5742686390877 71.29964425658363,260.1430988907814 82.82924783480576,243.95291935924797 c-4.016106556086839,1.461831322230303 -8.30728844678606,3.5445481436237287 -12.83425010585836,4.511242683054547 s-9.431169748306274,0.8488053110760561 -14.311799373513622,0.8802425135895291 c8.36230411332616,-6.28744649887085 16.39451722549984,-12.716360783813343 22.54835542630792,-21.220131933689117 c-17.031120763778176,6.664692929032526 -34.42376898170028,11.29382568365412 -52.93243901313372,11.521745589257307 c1.461831322230303,-0.5973074098975104 2.9315219450889742,-1.1867555191666526 4.385493873000655,-1.8076408309492678 c9.478325926837499,-4.063262359857049 17.69130276608314,-10.044195572080014 25.25981582951954,-16.95252738273348 c9.80841617846795,-8.951752222595303 19.56181743991783,-17.966378850217552 29.39381358145647,-27.0045831923444 c-12.622048426750894,1.5718616247177124 -23.955170800927363,-4.605554665355982 -36.01134958243574,-7.395608824373312 c-6.609678012014456,-1.5247058209475028 -13.360823810100555,-2.562134440794651 -20.32417128729412,-3.8824982580240714 c0.746634262371888,-0.4165433080645329 1.4068161241414714,-0.8330866161290658 2.1062946295882767,-1.171036917909916 c17.714881230109768,-8.71597282898324 36.152817368507385,-15.663601330159054 54.88940505697792,-21.707409696930995 a40.81338732564245,40.81338732564245 0 0 0 20.43420112133026,-14.555439004656591 c2.09057602833154,-2.7821950457694697 3.929654061794281,-2.601430943936492 6.515366404474037,-1.202474120423389 c5.407204078971574,2.892225441947133 10.877282562970095,5.642983097822622 16.35521978545546,8.385881827830758 a14.374675277584629,14.374675277584629 0 0 0 2.601430943936492,0.8881018142178974 c-4.133996252892871,-4.762740677923347 -8.550927328406999,-10.004898881557665 -13.187919571037469,-15.042715268854408 c-1.139599715396443,-1.2417707172554842 -3.0258335526293934,-2.5778530420513874 -4.550539373576896,-2.562134440794651 c-12.449144187687807,0.1493268524743776 -24.214527909044023,-3.465954762579031 -36.152817368507385,-6.03594850400205 c-4.833474570959169,-1.0374287135374018 -9.8477128689903,-1.2574893185122207 -14.791217648746624,-1.6818920208953756 C51.08550280332565,126.94354817006115 40.86840224266052,122.88028730924816 30.651301681995392,119.05279609826084 A35.799147903328276,35.799147903328276 0 0 0 2.436385443360251,120.01949963195602 c-0.550151559282174,0.2436385537050505 -1.1238810204494527,0.4479805574231328 -2.436385443360251,0.9588356135634655 c8.582364530920472,-14.060301753405838 24.363855183124542,-17.573413444038124 35.02893606698717,-27.900543838739395 H16.363079273464336 L16.072285712356233,91.95390504598618 c2.2241841390138006,-1.2260520223084939 4.401212474257392,-2.5542751401662827 6.680411905050278,-3.662437465668745 c9.140375437676141,-4.464086879284338 18.335765792370353,-8.818143924532535 27.507578432559967,-13.282230429055858 C54.22922605276108,73.09156554937363 58.15888011455536,73.37450112151691 62.395046713475494,74.44336750601906 c3.536688655614853,0.8802425135895291 7.772856004057019,1.7290478246655852 11.003031373023987,0.6130260111542469 c22.006062746047974,-7.607810503480778 44.648730529418344,-8.008634648147051 67.43286609886036,-5.996652188240716 c9.989180655061944,0.8881018142178974 19.868331476087747,2.9472405463457108 29.865370869636536,4.299041378708097 a9.321139164748104,9.321139164748104 0 0 0 5.116409768341441,-0.7387749617435198 c3.3559245537818754,-1.6740327202670073 6.4917886899694395,-3.796045763731513 11.003031373023987,-6.515366404474037 L164.25953978300095,57.01142184805258 C177.38458195092335,54.22922605276108 190.72968378691803,49.2149866304469 204.75068660123543,51.87143361568451 c25.377706650608616,4.786318767188959 50.488193707003575,0.8802425135895291 75.67727864157541,-1.296785821654062 a12.818531129840608,12.818531129840608 0 0 0 3.4502361613222945,-0.6994784117565516 C293.15219300985336,46.369917929172516 299.76187401995594,50.2995719909668 305.2712566896971,57.3729493021965 l2.73503924199926,3.5524072568715894 A30.43124201392311,30.43124201392311 0 0 0 310.5527127081368,58.944810926914215 a29.865370869636536,29.865370869636536 0 0 1 17.63628784906507,-8.527349613902402 a10.044195572080014,10.044195572080014 0 0 0 5.8944810926914215,-3.230175743727983 c5.753013681380793,-6.814020203113046 13.022873320939198,-10.42144275176372 21.613097339868546,-12.433425211670055 c13.973850383396325,-3.2773315474981928 27.81409096968582,-7.136251716256652 41.65433305501938,-10.94015696799704 A12.5748929977417,12.5748929977417 0 0 0 402.80527530037216,20.43420112133026 c4.959223381013061,-5.187143286616248 9.431169748306274,-10.88514205097897 14.586875457648034,-15.812928604239573 C419.804962609247,2.3577924370765686 423.3809382115978,1.0845845173076114 426.65825626769947,0.039296541203506896 c1.0374287135374018,-0.32223163025642343 3.607422548650675,1.3046451222824302 4.0789809611137855,2.5542751401662827 a93.52576667070389,93.52576667070389 0 0 0 10.21710056066513,19.703285225989475 c2.3577924370765686,3.528829167605977 2.404948240846778,7.670684908507724 0.04715584768751602,11.678931601824672 c8.118665231705222,6.421054796933618 8.134384207722974,15.184183054926052 7.301297216832893,24.2538253490884 c-0.14146755184600934,1.5718616247177124 -0.11003031419869114,3.50525145310138 0.6601818617695834,4.762740677923347 c9.54905907035129,15.569288973096604 7.442765002904537,30.3369281578166 -2.813632248282943,44.60157360136509 a33.10340497709035,33.10340497709035 0 0 1 -5.501515686511993,6.106682397037872 c0.6366039598844786,-2.6171495451932287 1.3753789216279984,-5.218580489129721 1.886234024613458,-7.859308123588562 c1.2103334210517573,-6.28744649887085 0.3536688561924599,-12.236942508580341 -3.803905251740389,-17.3926482179221 a9.761260749458756,9.761260749458756 0 0 0 -2.279199430792886,-2.09057602833154 c-2.2556213415272737,-1.422534725398208 -4.581976576090369,-2.7193206407425237 -7.073377311229706,-4.196870657919817 C425.6522897719733,87.23832017183304 419.6870537996292,90.19342170523169 412.6136764883995,90.57066513730524 c-3.206597654462371,0.16504546544239584 -3.693874668182218,1.4775499234870395 -4.07112147310491,4.18115205666308 c-1.5089871260005125,10.845845360456622 -2.9158033438322377,21.730986661913562 -5.084972191066953,32.45108396183832 c-1.6268767291162902,8.016494136155927 -4.621273266612718,12.692782319786716 -7.985056933642454,15.545712008114037 c-1.4068161241414714,-9.187530866685336 -2.8057729476545745,-18.41435917341505 -4.259745062946763,-27.625469253649044 c-0.1493268524743776,-0.9509763129350972 -0.487277107410101,-2.467822833254232 -1.0845845173076114,-2.6564462357155776 c-4.471946367293214,-1.4696906228586712 -6.452491999447091,-4.990660583526534 -8.024353624164803,-10.578628764331086 c-7.073377311229706,13.140762642984214 -19.13741558074696,18.461514602424245 -29.865370869636536,25.417002591608934 a62.58366842951227,62.58366842951227 0 0 1 -13.274370941046982,6.28744649887085 c-9.101078747153792,3.1830199399577737 -18.422218661423926,5.713716990858444 -27.507578432559967,8.833862151028256 c-7.136251716256652,2.4521040446169877 -10.05205506008889,7.497779919922607 -10.822267645952024,15.333510329006572 c-1.1160217198210844,11.23881076663605 -4.165433455406344,22.28899831819126 -6.248149808348501,33.44135546625171 A143.03940784931183,143.03940784931183 0 0 0 292.2169334243699,205.91387283802032 c-0.29079440432038695,3.5759853461372018 1.2889265210256937,4.48766496854995 4.644850981117315,3.2223162557191074 a25.448440543644438,25.448440543644438 0 0 0 4.22830786043329,-2.0198421352957183 a29.07944005727768,29.07944005727768 0 0 1 16.866074513679905,-4.1104181636272585 c5.808028598398863,0.25149785433341876 11.223091790618298,-1.1867555191666526 16.826778572679586,-2.790054346397838 c9.486184665324345,-2.727179941370892 18.540107983468943,0.039296541203506896 26.83167745423725,5.187143286616248 c0.10217100185904116,0.07073377592300467 0.23577925307668224,0.16504546544239584 0.2672164790127187,0.275075779641087 C364.6011660395616,214.83419235523434 373.9458709264618,214.55911177396774 379.60458236932755,218.48876583576202 c2.868647540062028,-2.7743357451411015 5.5958272940524125,-5.084972191066953 7.898604814110911,-7.764996516048143 a11.788962185382843,11.788962185382843 0 0 0 2.727179941370892,-5.501515686511993 c1.1081624191927162,-7.21484509730135 1.8626559353478456,-14.476845623611894 2.6878834382290506,-21.723127173904686 a40.39684495448046,40.39684495448046 0 0 0 0,-4.3776347597527945 c8.503771149875774,5.627264496565886 14.217488515495234,25.0711926144387 12.394129270669737,41.05702695678542 c4.149714854149607,1.1788962185382843 8.19725861274992,2.467822833254232 12.33125411612076,3.4109398455609607 a5.407204078971574,5.407204078971574 0 0 0 3.631000263155272,-0.9352577116783607 a76.69898509993618,76.69898509993618 0 0 0 6.633255726519053,-4.967082869021937 a12.064038269517255,12.064038269517255 0 0 0 2.3577924370765686,-2.5542751401662827 c6.538944118978634,-9.682667368414059 10.916579253492444,-20.166984525204725 11.726087780355897,-32.02668060362339 c10.21710056066513,9.8477128689903 11.230951278627174,32.891203297982884 1.784062929064163,47.037957920442295 c1.3439417191145253,0.10217100185904116 2.3577924370765686,0.2436385537050505 3.4266584468176973,0.2436385537050505 c1.8312187328343725,0 3.8117643649882496,-0.5580108599105422 5.438641281485047,0 c2.4599635326258635,0.7859308123588562 5.084972191066953,2.004123534038982 6.7511457980861,3.8432015675017226 c0.5265736573970692,0.5815888086407739 -1.4539720216019347,3.992528466821227 -2.8372101501680476,5.642983097822622 c-2.5149786370244414,2.9708184482308155 -5.501515686511993,5.501515686511993 -8.157961922227571,8.393741315839634 a22.86272745144265,22.86272745144265 0 0 0 -4.07112147310491,5.635123984574761 c-1.4539720216019347,3.1908790532056344 -3.010114951372657,6.54680360698751 -3.3952212443042242,9.965602940557346 c-1.1867555191666526,10.492176644799542 -9.816275666476827,13.290089917064734 -17.22760346686789,17.345492788912907 c-0.7309156611151515,0.3929654061794281 -2.6407274470783335,-0.487277107410101 -3.465954762579031,-1.3046451222824302 c-3.230175743727983,-3.230175743727983 -6.075245194524399,-6.86117563212224 -9.391873057783926,-9.989180655061944 c-3.733171358704567,-3.5131105663492406 -4.982801470278673,-2.9943963501159203 -8.645238935947418,0.5658702073840374 a47.76887381578308,47.76887381578308 0 0 1 -9.431169748306274,6.8533168936353945 c-4.809896481693556,2.821491548911311 -9.871291333016927,5.2342990903864575 -14.720483755710802,7.764996516048143 c2.2556213415272737,-6.578240809500983 2.0277014359240866,-13.580884977216897 0.13360823950635936,-20.32417128729412 l-27.9319817907749,18.24931292331678 l-0.6366039598844786,-0.7859308123588562 c0.9981321167053068,-2.01198283466735 2.2949180320496225,-3.929654061794281 2.9315219450889742,-6.051667105258787 c2.2241841390138006,-7.348453395364118 -2.813632248282943,-16.378798249482088 -11.003031373023987,-19.23172643876535 c-12.229083770093496,-4.259745062946763 -24.1437940160082,-2.7428985426276284 -35.783428927310524,2.601430943936492 a81.60319768630234,81.60319768630234 0 0 1 -13.062170760983577,5.029957274048883 c-5.092831679075829,1.3439417191145253 -8.558786816415875,4.18115205666308 -9.69838634443181,9.12465646165839 c-1.36751962099963,5.957355497718368 -2.7979136470262063,12.048319293499503 -2.9315219450889742,18.076408684253693 c-0.4322619561663963,19.105977628711457 0.6680412092430785,38.14122136438709 5.061394476562356,56.84637709699837 c0.7387749617435198,3.143723249435425 1.8233594322060043,6.185275403321555 2.9708184482308155,10.028477345584292 c-7.58423203945415,-3.8117643649882496 -14.555439004656591,-7.4820616934268855 -19.53038098692639,-13.918833967334194 c-1.0217100185904116,-1.3203637235391668 -1.3282231178577888,-3.3559245537818754 -1.5718616247177124,-5.108550280332565 c-1.3125044229107985,-10.88514205097897 -2.499260035767705,-21.778142090922756 -3.7410308467134428,-32.6711436299106 a3.238034856975844,3.238034856975844 0 0 0 -1.04528801416577,-1.949108429640404 c-0.13360823950635936,18.021393767235622 -9.910587274017246,32.40392703378507 -17.74631768310121,47.66670496879988 c0.32223163025642343,-5.753013681380793 0.9588356135634655,-11.513886101248431 0.8645239123327926,-17.290477871894836 a106.83156956761013,106.83156956761013 0 0 0 -1.5718616247177124,-15.05843424487216 c-0.9352577116783607,-5.902340580700297 -2.2634808295361495,-11.741806006851618 -3.50525145310138,-18.021393767235622 c-5.163565572111651,22.909882880451846 -8.951752222595303,46.204873178118305 -22.988476261496544,65.7273916789477 zm7.26986001431942,-272.48222223869743 c14.7990771367555,2.593571643308124 26.66663270318304,11.215233052131452 39.1314958668886,18.665856793522835 c6.28744649887085,-9.816275666476827 18.312187328343725,-12.27623919910269 26.210791392932606,-20.84288550352744 c-3.3166278632595265,0.38510610555105984 -5.8944810926914215,0.7859308123588562 -8.480193435371177,0.974554214820202 c-8.315147934794936,0.715197059858415 -16.50454705953598,1.0767252166792431 -24.678227208259273,-1.9019526258701944 C244.32230780044483,88.13428081822804 233.67295488686432,91.54522366187712 223.14932979672085,95.24695706854618 z" id="svg_1"/></g></g></g></svg>