<svg xmlns="http://www.w3.org/2000/svg" width="427" height="437" style=""><rect id="backgroundrect" width="100%" height="100%" x="0" y="0" fill="none" stroke="none" style="" class=""/><g class="currentLayer" style=""><title>Layer 1</title><g id="Capa_2" data-name="Capa 2" class="" fill-opacity="1" fill="#790914"><g id="Capa_1-2" data-name="Capa 1" fill="#790914"><path fill="#790914" d="M0,435.6817478022276 q1.519400847275449,-6.378049730739349 3.0302174024029114,-12.756099461478698 C7.176378914251302,405.4396521726085 16.670487859290006,391.4388397811308 30.73996793045103,380.4167529089609 c4.043151393051829,-3.1589803976434325 8.077718493955672,-6.3522974090871 12.266800911752284,-9.31384102909783 c2.051620441648012,-1.4421430501311363 2.497997946728276,-2.8070285805138155 2.0086992583039347,-5.313610819390078 c-2.978712204306703,-15.19400847275449 5.150510932953466,-31.838744010392247 18.378740359862604,-38.08803102328693 c0.47213020815181395,-0.22318880455185486 0.9528445697536867,-0.4034567031554879 2.2233039267429717,-0.9356762628535691 c-6.300792210990892,8.824542479371416 -7.837361087770603,18.026789374920554 -6.669911780228915,27.74408603226493 c0.6094771141210202,5.081837705352996 1.4764799413272272,5.880166888864949 6.395217760243611,4.343597734689382 c19.305832816010934,-6.051851067449547 38.542995733171665,-12.352642723648728 57.78873351102129,-18.593344889603713 c2.8499494864620374,-0.9185078866044876 5.631225745323604,-2.0430361495000255 8.472590939637655,-2.978712204306703 c13.966469674968607,-4.601123447774569 24.4220087995393,-13.253981748561387 30.8172260049912,-26.610975002898613 c0.6695664656672875,-1.3906379907328557 1.5365691541755666,-2.6868501548171366 2.4035718426838457,-4.180498125648626 l36.05357874984111,8.077718493955672 c-5.064669675848734,5.571136255079409 -9.082067915060748,10.738815772328849 -13.846290694480217,15.090998076562073 C176.9372261216231,338.87789081177107 164.81634985451092,345.08424360371646 152.60965396717074,350.98158185083594 c-4.4466078534859435,2.171798867344691 -4.798559948011416,4.068903714704078 -1.0644389806982346,7.408152028288384 c6.3866340228873355,5.717067557220048 14.043727749508776,7.245052141851772 23.477746649511573,6.008929606709614 a23.915541665516912,23.915541665516912 0 0 1 -2.9357915757543367,2.18038302079475 c-13.425666481937697,6.292207918842905 -26.54230066571472,7.313726479035665 -39.08379337828546,-2.2576408179390626 a4.1118246206523,4.1118246206523 0 0 0 -3.0988909073992374,-0.6094771141210202 c-27.46939312186305,7.03903190425865 -55.02462805562254,13.906381294307835 -80.69133868932659,26.499381978933343 c-20.16425093497537,9.897565128076963 -36.13083682438128,24.224569525343895 -46.955493299023146,44.07120664396916 c-0.4807143962763547,0.8584185350582203 -1.4936482482273448,1.5022324016774036 -2.2576408179390626,2.2404722336430893 z" id="svg_1"/><path d="M97.97989114493794,49.367647769479845 c10.421200846395323,-0.506466925975495 19.606279157648487,-2.437908456484081 27.778425420023723,-6.824427374517541 C159.863275976586,24.21598578798762 195.63358251700265,22.318882188909583 232.57992321190068,30.825809742347474 c6.3866340228873355,1.4678957878771683 12.678842496521952,3.3392483135843065 19.013970211729657,5.0475010915527605 a5.605473423671356,5.605473423671356 0 0 1 2.1288779613964692,1.1416967084935834 c-41.6161290483974,4.292092813989029 -76.3992480945044,20.35310203348081 -98.4262721174664,57.51404060061941 c-21.237273583680917,35.8218045262206 -28.21621599769537,73.65231455215189 -13.442833956650247,113.98939572112522 a154.9702971368224,154.9702971368224 0 0 1 -21.022669053939808,-32.619904054816516 c-14.704708813444654,-30.757137624330426 -18.207056736069717,-63.325532597508754 -15.099581813918348,-96.82961707919276 c0.5923088072209026,-6.429554374043846 -0.8584185350582203,-12.112284762671948 -3.227653625243903,-17.837938276415116 C100.9671915249346,57.44536626343552 99.57654618321158,53.591068465451826 97.97989114493794,49.367647769479845 z" id="svg_2" fill="#790914"/><path d="M391.5848076995244,184.3711332455223 c-2.060204595098071,-10.24093348524616 -3.588189457125651,-20.48186697049232 -6.2235341364507235,-30.42235189493408 c-8.335243929645003,-31.443872119501975 -23.4176582688508,-58.83600716682486 -50.26898901355935,-78.30493543093871 a240.23700750706303,240.23700750706303 0 0 1 -24.035718426838457,-19.743625612849428 c-17.717758186343303,-16.7305773495342 -39.07521407926288,-25.81264526459495 -63.1109258486008,-28.90295049286692 a7.588419944229258,7.588419944229258 0 0 1 -1.236122673840086,-0.2832781214236402 c-0.06867348332477485,0 -0.08584185523954613,-0.19743627485271453 -0.26610974517455865,-0.686734841916369 c6.54114906238425,-1.7940947285628255 13.013624897168029,-3.725536467118303 19.563358251700265,-5.347947433190313 C278.9860218134527,17.477402444533368 291.8623024745866,13.520092031190416 305.0733755226174,11.631571059885232 c8.996226103164304,-1.2876277332383665 18.481751865638444,-0.07725766711500537 27.641076745655937,0.9270920400545464 C343.1270449664771,13.734696560931525 352.7413634055483,9.682960598335853 358.47558401289643,0 c2.867117793362155,4.429439546585826 5.648393774827866,8.472590939637655 8.180728335356378,12.661673912225979 c23.88978823428124,39.616016162710366 32.16494378326547,82.82880468771509 29.186229359791923,128.5224264586941 c-0.9013394410064421,13.803369788531995 -2.4207401495839633,27.572402408472044 -3.6826155611700813,41.35001987535179 A8.798790157719168,8.798790157719168 0 0 1 391.5848076995244,184.3711332455223 z" id="svg_3" fill="#790914"/><path d="M192.9982419986154,304.1205185393992 c-42.380121618109115,-11.365460777256203 -84.24519236483957,-24.035718426838457 -122.35039086283905,-47.65081153155097 c9.511276974542966,-6.575485676184485 11.159441094454792,-16.4472984826092 12.464237966780843,-26.1130916062325 c2.317730030787402,-16.66190412193373 3.4851793383290897,-33.47832217378095 6.120524295050018,-50.09730538976646 c1.957194198905654,-12.32689040199648 5.459542121530717,-24.41342284301618 8.335243929645003,-36.59438305245544 a15.503038551748318,15.503038551748318 0 0 1 1.3133803322864708,-3.0645540162031466 c3.55385256592956,11.932017401522785 6.5669019388282095,24.327581031119735 10.944836564713682,36.225262373633996 c6.704248948820862,18.22422532036569 16.524556557149367,34.705860971566835 30.705630761859084,48.30321107729742 a8.738701222266684,8.738701222266684 0 0 1 2.3091458773373432,3.4937636304770763 c8.84171106366739,28.63684353898816 26.207519374652065,51.61670679183362 47.63364405683842,71.90113892646423 a37.178108261018,37.178108261018 0 0 0 3.33066402143632,2.5151662536283936 z" id="svg_4" fill="#790914"/><path d="M262.9850832212869,370.62220261541006 c-3.819962293766878,-6.249287012894683 -7.262220726147746,-12.670257649582254 -11.485639757744593,-18.516087924646968 a75.0257791041613,75.0257791041613 0 0 0 -11.477056020388318,-12.541494931737589 c-26.018666056979782,-22.67941691120791 -50.10588912712274,-47.11000944810348 -69.15419650744434,-76.07305719829856 c-3.8972200909111905,-5.914503502665184 -6.755753592125359,-12.507157763145642 -10.0520812771573,-18.807949419344823 a20.069825385722652,20.069825385722652 0 0 1 -0.8584185350582203,-3.184732719295681 c25.194585106607292,31.443872119501975 56.98181781619451,48.92985497264135 96.35748489459547,51.05015349631731 c39.152467715469356,2.1202938079464104 72.44194100991172,-11.837591852270066 100.34912692861326,-39.229725790009525 a132.65999202776857,132.65999202776857 0 0 1 -24.035718426838457,30.319342608325087 c-11.77750236202587,11.219529475115564 -23.76960925379285,22.207289164944314 -35.76171614555983,33.19504330685595 C283.81892336838973,328.7742904667248 274.25612510679093,343.1699725299259 266.96816814795056,359.162318508068 C265.3715219863443,362.73333078162614 264.3929049143899,366.58761526460876 262.9850832212869,370.62220261541006 z" id="svg_5" fill="#790914"/><path d="M406.69293108662896,146.29168595959163 c2.352066921983493,10.92766798041771 4.970243017012592,21.812415054887197 7.021863874754388,32.80017141596568 A320.4733637331701,320.4733637331701 0 0 1 419.30312476638574,248.0829517773982 a62.71605617687737,62.71605617687737 0 0 0 2.051620441648012,16.481636760784568 c0.7639925003627539,3.1160594916952107 3.2877428380922424,5.802909369116492 5.656978066975853,9.734466351223773 c-35.14365376840533,23.735272085200904 -73.03424995583055,42.714905128338614 -119.2600767578997,42.92092813989029 c1.7855104364148389,-1.2532911194381313 2.575255466476733,-1.9056891395073734 3.433674140232881,-2.4207401495839633 c27.529481502523822,-16.146852140971646 47.942671916665404,-38.749014306389654 61.806135633775284,-67.43735583118178 a91.12112993057872,91.12112993057872 0 0 1 8.996226103164304,-14.412848428330221 c12.98787257551578,-17.494568809662496 19.07405859239043,-37.46138268960931 21.460464069945147,-58.758744653951 c1.01293385195099,-9.202246895549138 1.5365691541755666,-18.46458328134247 2.283393416987167,-27.701167345483555 z" id="svg_6" fill="#790914"/><path d="M270.35033819967066,279.6984986440257 c0.9185078866044876,-0.49788273785095427 1.8370157732089751,-0.9871813222518497 2.7383550755174895,-1.4936482482273448 c40.9122270785133,-22.997032946724858 69.5319031427889,-55.797204362690536 79.1376112145017,-102.60676524998962 c6.292207918842905,-30.628372687318915 -1.9400258920055364,-58.784504742687204 -18.241393904661663,-84.88900817322974 a10.549963564239988,10.549963564239988 0 0 1 -1.879936679157197,-4.729886165619234 c2.4035718426838457,2.317730030787402 4.875816912968162,4.558202264430491 7.1849632063992885,6.9617738297184815 c20.421778589831547,21.27161297143971 31.692811598668186,47.21301873471248 37.4957220773681,75.61808361174644 c2.575255466476733,12.696009971234503 4.103240883296024,25.62379416608951 5.725651849368035,38.49148887070032 c0.26610974517455865,2.060204595098071 -0.9013394410064421,4.88440175990786 -2.360650936735624,6.489643864288041 c-9.28808815265387,10.215180054010489 -18.232809057721965,20.87673886138259 -28.465157696028427,30.087568384704582 c-16.66190412193373,15.005155155082207 -35.46985354127855,26.962925987840663 -57.3509407141828,33.06628280817813 c-7.682845493481977,2.137462114846528 -15.7348116657854,2.9872964964546895 -23.615093104712514,4.420855531833695 z" id="svg_7" fill="#790914"/><path d="M314.7563283538693,202.13181788573092 c1.7168370701164406,-9.03056327175625 3.974477888055503,-16.859338957795444 4.635460061574804,-24.81688069042957 c2.575255466476733,-30.800058530278648 -10.59288447018821,-54.12328681154304 -35.48702323515795,-71.31741371790167 C265.77494876542187,93.48178197689776 245.336013796712,88.70896658345464 223.51501722363537,89.27552875563833 a65.0509570111276,65.0509570111276 0 0 1 -7.5454990382810365,0 A63.70323923285332,63.70323923285332 0 0 1 246.36611553946932,79.36078838576486 c31.169179209100093,-2.060204595098071 58.44113749510143,8.455422910133393 82.40817492725546,27.55523271459265 c4.583955140874451,3.6482786699739904 6.9617738297184815,10.979172623722206 8.712947791031013,17.09111318141595 c5.433789245086757,18.979635262304555 1.4764799413272272,37.08368049259843 -7.56266762257701,54.08036812476166 C325.58099814351226,186.19097433172647 320.13860685294276,193.6678090190744 314.7563283538693,202.13181788573092 z" id="svg_8" fill="#790914"/><path d="M340.53463201153863,182.16499734828358 c-2.463661055532185,6.111940002902031 -4.3607660415895,12.532911194381313 -7.485410102828553,18.284313701026463 c-17.168371255956117,31.503960500162748 -41.83073579730535,55.6426882136102 -72.69946644560105,73.70381697628954 c-4.000230209707752,2.3434826298355063 -7.081952810206872,2.094541208898306 -10.824657584225292,-0.506466925975495 c-21.820998792243472,-15.116750398214322 -39.19539084058442,-33.90753123326317 -49.42774280764115,-58.73299344188217 c-0.6953189953664278,-1.7168370701164406 -1.1674491688437598,-3.433674140232881 -2.060204595098071,-6.189197522650488 c1.5279850007255078,1.193201767891864 2.360650936735624,1.7683421295147213 3.1074749221513684,2.42932444173195 c9.442603746942495,8.403917157245473 19.606279157648487,15.70905823454973 31.315107182490465,20.602043731813865 c24.81688069042957,10.421200846395323 47.719485868734864,6.103355710754045 69.05976651985793,-9.305257291741555 c14.412848428330221,-10.412617109039047 25.752556883934176,-23.735272085200904 36.05357874984111,-38.10519849799948 c0.6352297131691245,-0.9013394410064421 1.3219644857365296,-1.77692628296478 1.9829467979537583,-2.6610972783731768 z" id="svg_9" fill="#790914"/><path d="M151.94008694671174,131.5698130001847 a146.87541560648788,146.87541560648788 0 0 0 20.258678703394935,55.19631611774912 a12.524326347441615,12.524326347441615 0 0 0 1.9314417385554776,2.8070285805138155 c6.214949844302737,5.579720547227396 8.249401562956848,13.099466709064473 10.644389113492707,20.7565598808942 c8.584185627978059,27.36638161608721 25.795475570715553,48.5435690382742 48.406220363906414,65.65185413273639 c0.909923594456501,0.6953189953664278 1.8541840801090927,1.3305486391865884 2.746939367665476,2.0430361495000255 c0.18026788126639204,0.14593114610546998 0.20602044564001432,0.4892985497264135 0.3004464803354807,0.7468241241136724 C173.70958109565072,266.0153289180671 129.52676811271522,196.47484203792192 151.94008694671174,131.5698130001847 z" id="svg_10" fill="#790914"/><path d="M165.67477685014273,104.3236014879185 c8.712947791031013,-15.116750398214322 20.36168799000393,-27.194700211461168 34.43116806116495,-36.97208524946632 c18.584761152247438,-12.927783085271585 39.28981638983714,-20.602043731813865 61.49710333561461,-24.490680917556347 a10.3782799404471,10.3782799404471 0 0 1 3.768457373066525,0.22318880455185486 c11.11652018850657,2.3434826298355063 20.842401692790645,7.579835652081272 29.658359325222364,14.593114679895962 c11.528560663692815,9.167910281748902 20.421778589831547,20.602043731813865 27.95010904381661,33.68434518533263 C267.5003776173744,59.969118196191175 214.94800350870355,62.25250772963636 165.67477685014273,104.3236014879185 z" id="svg_11" fill="#790914"/><path d="M246.85543295211392,102.82136756056389 c-30.439519369646632,16.807834314490947 -55.91738112401208,37.77041498776998 -63.900678507048724,74.57082327094395 c-11.39979794584815,-15.49445370480862 -20.181420628854767,-31.169179209100093 -20.893906336095142,-50.26898901355935 c-0.19743627485271453,-5.219184715345648 1.450727342279123,-8.807374449867154 6.420970636687571,-11.674491965833454 c23.71810239132151,-13.734696560931525 48.92985497264135,-18.026789374920554 75.86702974841319,-13.734696560931525 a10.979172623722206,10.979172623722206 0 0 1 1.66533201071816,0.41204089128002863 C246.23736835579257,102.22047931562247 246.41761796360697,102.46083283826556 246.85543295211392,102.82136756056389 z" id="svg_12" fill="#790914"/><path d="M223.18881745076214,132.66858464179222 c-1.7168370701164406,9.442603746942495 -3.433674140232881,18.88520749388499 -5.150510932953466,28.405069315367655 c-0.3004464803354807,1.7168370701164406 -0.15451533423001074,3.433674140232881 -0.4206250794045694,5.150510932953466 c-1.7168370701164406,11.107935341566872 2.7555236598134627,19.898141761929764 9.897565128076963,27.932939349937215 a84.18510620334564,84.18510620334564 0 0 0 33.521243079729174,22.988449209368582 c0.8584185350582203,0.33478323283364375 1.7168370701164406,0.7124873716155093 3.6482786699739904,1.5365691541755666 a84.53705718828769,84.53705718828769 0 0 1 -43.178453575579624,-6.506812448584014 a95.1127719645965,95.1127719645965 0 0 1 -28.405069315367655,-18.74786103868405 c-1.1331124856945607,-1.0816073569473161 -2.2318880801930305,-3.3220797292883333 -1.8885208326072558,-4.652628645870777 c5.287857942946118,-20.447529801900373 13.940717353316359,-39.135300240756806 29.357915202751656,-54.08036812476166 A23.0828747586213,23.0828747586213 0 0 1 223.18881745076214,132.66858464179222 z" id="svg_13" fill="#790914"/><path d="M235.9277405608609,184.27670325793588 c19.065474855034154,9.803139578824243 36.70597607642071,5.081837705352996 54.08036812476166,-3.5281002442773115 c1.1502808619436422,-0.5665562428472803 2.0430361495000255,-1.9228575851054188 2.746939367665476,-3.0988909073992374 c4.644044076326935,-7.7257669542219105 6.5669019388282095,-16.309952027408258 6.953190647153917,-25.26325722462434 c0.1373469666495497,-3.261990516439994 0,-6.532565325027974 0,-10.773152940920795 a31.67564634312248,31.67564634312248 0 0 1 2.3348983376875196,3.184732719295681 c10.755984356624822,20.790897049486148 10.858993643233816,41.46161289931706 -0.6781506884663102,62.029326120039514 c-1.7168370701164406,3.1418118133474593 -3.940141274255268,4.489529036830021 -7.7257669542219105,4.601123447774569 c-20.26726244075121,0.6008929606709614 -36.67164112699561,-7.9060348701627845 -51.23041641913278,-21.031255010462928 C240.19407994361427,188.41429545701249 238.08239178729673,186.31973926873798 235.9277405608609,184.27670325793588 z" id="svg_14" fill="#790914"/><path d="M227.3607268459291,153.42513564601904 c4.5066973437301385,-20.12133002902715 15.743396512725099,-35.753132408203555 35.744546451680435,-44.42315762891121 c1.227538520390027,-0.5322194903491173 3.3134954371403467,-0.7554082775637312 4.240587615892821,-0.07725766711500537 c11.545729247988788,8.352411959149265 21.589226787789812,18.026789374920554 24.301827599884064,32.80017141596568 c1.0816073569473161,5.888751181012935 0.7725766538128127,12.017859213419229 0.47213020815181395,18.22422532036569 c-5.691315235567799,-7.777272152318119 -12.58441583768581,-13.734696560931525 -20.172834672331646,-19.05689111767788 c-7.047616196406636,-4.95307498750833 -14.464353071634719,-5.742819878872297 -21.7609104115827,-1.819847188913002 C242.26287604315257,143.3558968804 234.8890639574147,148.63516165453075 227.3607268459291,153.42513564601904 z" id="svg_15" fill="#790914"/></g></g></g></svg>