<svg xmlns="http://www.w3.org/2000/svg" width="425" height="392" style=""><rect id="backgroundrect" width="100%" height="100%" x="0" y="0" fill="none" stroke="none" style="" class=""/><g class="currentLayer" style=""><title>Layer 1</title><g data-name="Capa 2" class="" id="svg_2"><g id="svg_3" data-name="Capa 1"><path fill="#790914" d="M307.9977798461914,146.6720371246338 c-0.715031623840332,2.119950294494629 -1.3905221223831177,4.256488800048828 -2.164865255355835,6.356533527374268 c-0.23724550008773804,0.6635212898254395 -0.7446873784065247,1.1943382024765015 -1.1466866731643677,1.8147305250167847 c-4.8503522872924805,-4.54843807220459 -10.87375259399414,-6.028090953826904 -16.95975685119629,-7.298734188079834 c-11.054980278015137,-2.2924656867980957 -22.195634841918945,-2.199572801589966 -33.2242546081543,-0.1161162257194519 c-15.628548622131348,2.9559874534606934 -23.915666580200195,17.8918514251709 -18.83795166015625,33.45806121826172 c0.7117365598678589,2.1829850673675537 1.891373872756958,4.210042476654053 2.757978677749634,6.349898338317871 c0.3525731861591339,0.8725305199623108 0.708441436290741,1.8810827732086182 0.6161792874336243,2.780154228210449 a364.0828857421875,366.57232666015625 0 0 0 -1.8057019710540771,52.11628341674805 c0.39870429039001465,10.367520332336426 1.2290635108947754,20.725088119506836 2.062717914581299,31.06938362121582 c2.05283260345459,25.399593353271484 1.4366533756256104,50.679752349853516 -3.6641247272491455,75.69451141357422 c-2.810699939727783,13.774702072143555 -6.204628944396973,27.426654815673828 -9.341541290283203,41.1383171081543 c-0.1087375208735466,0.47773534059524536 -0.283376544713974,0.942200243473053 -0.5799334049224854,1.9009884595870972 c-1.0280637741088867,-3.881599187850952 -1.9770458936691284,-7.298734188079834 -2.8436508178710938,-10.758997917175293 c-4.283599376678467,-16.91979217529297 -7.819216251373291,-33.982242584228516 -9.98737621307373,-51.30678176879883 c-1.9770458936691284,-15.718820571899414 -2.2175862789154053,-31.517261505126953 -1.2290635108947754,-47.302433013916016 c1.318030595779419,-20.827930450439453 3.641059160232544,-41.61273956298828 2.7052576541900635,-62.530242919921875 c-0.4283599555492401,-9.647599220275879 -1.176342248916626,-19.285245895385742 -1.8419477939605713,-28.92289161682129 c-0.11203260719776154,-1.6355797052383423 0.04283599182963371,-3.0289742946624756 0.8666052222251892,-4.545120716094971 c4.02987813949585,-7.448026657104492 5.394040584564209,-15.31075382232666 2.4021108150482178,-23.445524215698242 c-3.163273811340332,-8.605870246887207 -9.443689346313477,-13.963805198669434 -18.356870651245117,-15.592750549316406 C183.7733383178711,145.03313636779785 170.1086654663086,145.14925575256348 156.7076187133789,149.38250160217285 c-3.568567991256714,1.127986192703247 -7.034987926483154,2.537968873977661 -9.736950874328613,5.460780143737793 C144.57840728759766,152.35511207580566 143.95235443115234,149.1635684967041 143.24390411376953,146.00852394104004 V141.7155246734619 c0.11862275004386902,-0.534134566783905 0.2603110373020172,-1.0616340637207031 0.3525731861591339,-1.5990861654281616 c0.962162435054779,-5.606754779815674 3.057830810546875,-10.69927978515625 6.794447422027588,-15.022120475769043 c0.8764902949333191,-1.0118699073791504 1.9770458936691284,-1.837954044342041 2.9886343479156494,-2.7867889404296875 c0.8962608575820923,1.1943382024765015 1.6047022342681885,2.1697144508361816 2.342799186706543,3.125185251235962 c3.492780923843384,4.525215148925781 8.007035255432129,7.345180511474609 13.687747955322266,8.06510066986084 a66.23103332519531,66.68388366699219 0 0 0 7.871937274932861,0.5606754422187805 c9.717181205749512,0.06303451955318451 19.440950393676758,0.0265408493578434 29.154836654663086,0.0265408493578434 h1.4564238786697388 c-3.2950761318206787,-2.159761905670166 -6.590152263641357,-4.017621040344238 -9.575490951538086,-6.303452491760254 C183.8755111694336,116.61452674865723 174.98209381103516,101.77152442932129 170.26355743408203,84.27116584777832 c-3.9310262203216553,-14.597468376159668 -4.095779895782471,-29.15843963623047 1.3378008604049683,-43.46064376831055 C186.4094009399414,1.8684654235839844 229.57488250732422,-6.316068649291992 257.0657272338867,12.1099214553833 c18.080081939697266,12.122533798217773 26.535247802734375,29.858455657958984 26.69011878967285,51.346588134765625 c0.14827843010425568,19.905637741088867 -6.590152263641357,37.64820098876953 -19.11144256591797,53.081703186035156 c-5.601629734039307,6.92052698135376 -12.303813934326172,12.577044486999512 -20.235063552856445,16.68756103515625 c-0.349278062582016,0.18246835470199585 -0.67549067735672,0.41138318181037903 -1.1961127519607544,0.7331910133361816 c11.845799446105957,0 23.421403884887695,0.10284579545259476 34.99371337890625,-0.03649367019534111 c8.349722862243652,-0.09952820092439651 14.86408805847168,-3.7820708751678467 19.365163803100586,-10.928194046020508 a5.090892791748047,5.125701904296875 0 0 1 0.5634580850601196,-0.6170747876167297 c0.6787857413291931,0.5573577880859375 1.318030595779419,0.995281994342804 1.8518329858779907,1.536051630973816 c3.087486743927002,3.048879861831665 5.051352024078369,6.79445743560791 6.333136558532715,10.891702651977539 c0.7018512487411499,2.2493371963500977 1.1170308589935303,4.588249683380127 1.6475380659103394,6.887351036071777 zM234.54061126708984,124.52700996398926 c2.4218811988830566,-1.4597468376159668 4.8141069412231445,-2.6806259155273438 6.969086170196533,-4.236583232879639 c7.2491679191589355,-5.221912384033203 12.606962203979492,-12.109262466430664 16.594003677368164,-20.048295974731445 c8.774787902832031,-17.47051429748535 9.463459014892578,-35.22966384887695 0.771047830581665,-52.8693733215332 c-7.822511672973633,-15.871428489685059 -23.230287551879883,-23.505245208740234 -40.30537414550781,-20.343563079833984 c-12.432324409484863,2.2991013526916504 -21.147802352905273,9.800209045410156 -26.475934982299805,21.040258407592773 c-8.013625144958496,16.91979217529297 -7.60833215713501,33.968971252441406 0.45472055673599243,50.795867919921875 c4.613107204437256,9.621058464050293 11.0187349319458,17.785688400268555 20.258129119873047,23.39575958251953 c1.318030595779419,0.8061784505844116 2.774454355239868,1.4332060813903809 4.395632266998291,2.2592899799346924 c0,-6.303452491760254 0,-12.248602867126465 0,-18.19706916809082 c0,-7.0067853927612305 -2.4021108150482178,-12.832500457763672 -8.105888366699219,-17.0889892578125 c-0.07249167561531067,-0.056399308145046234 -0.08567198365926743,-0.18910355865955353 -0.17134396731853485,-0.3914775252342224 c8.415624618530273,-3.4834864139556885 13.180304527282715,-10.394060134887695 16.804889678955078,-18.60513687133789 c3.660829782485962,8.204440116882324 8.45516586303711,15.078522682189941 16.96305274963379,18.681440353393555 c-0.6062940359115601,0.534134566783905 -1.0840801000595093,0.9654234647750854 -1.5717514753341675,1.3867592811584473 c-3.848649740219116,3.3176064491271973 -6.346317768096924,7.471249580383301 -6.5341362953186035,12.560458183288574 C234.34619903564453,109.91628456115723 234.54061126708984,116.9860782623291 234.54061126708984,124.52700996398926 z" id="svg_1"/></g></g><image style="color: rgb(0, 0, 0);" id="svg_4" x="175" y="114" width="0" height="2" xmlns:xlink="http://www.w3.org/1999/xlink" xlink:href="logo/vector_paint_icon256.png"/></g></svg>