<svg xmlns="http://www.w3.org/2000/svg" width="500.54" height="499.06"><rect id="backgroundrect" width="100%" height="100%" x="0" y="0" fill="none" stroke="none"/><g class="currentLayer" style=""><title>Layer 1</title><g id="Capa_2" data-name="Capa 2" class="selected" fill-opacity="1" fill="#790914"><g id="Capa_1-2" data-name="Capa 1" fill="#790914"><path fill="#790914" d="M0,250.67v-2q34.5-34.2,69-68.36c2.86-2.81,3.68-5.76,3.66-9.66-.15-30.43-.09-60.87-.09-91.3V73.14h6.07c31.1,0,62.2.06,93.3-.14a11.36,11.36,0,0,0,7.24-3c21.93-21.82,43.66-43.83,65.45-65.78,1.36-1.37,2.8-2.68,4.4-4.21,1.44,1.31,2.57,2.26,3.61,3.3C275,25.63,297.32,48,319.8,70.2A11.4,11.4,0,0,0,327.11,73c30.93.19,61.86.13,92.79.13H426v6.18c0,31.1-.07,62.19.13,93.29a11.38,11.38,0,0,0,3,7.26q32.72,32.9,65.81,65.42c1.27,1.25,3,2,5.6,3.68-24.25,23.94-47.15,46.64-70.21,69.16-3,2.91-4.47,5.8-4.45,10,.13,31.09.1,62.19.1,93.29,0,1.43-.19,2.87-.32,4.69h-5.75c-30.76,0-61.53.06-92.3-.07a10.61,10.61,0,0,0-8.3,3.36c-20.21,20.24-40.57,40.34-60.84,60.52-2.92,2.91-5.61,6.05-8.48,9.16-23.41-23.24-46.21-45.76-68.81-68.48-3.06-3.07-6-4.64-10.41-4.62-31.26.16-62.53.12-93.79.12-1.29,0-2.58-.19-4.37-.34v-6.1c0-31.1.08-62.2-.14-93.3a12.16,12.16,0,0,0-3.22-7.67c-21.69-21.82-43.58-43.44-65.44-65.08A38,38,0,0,0,0,250.67Zm384,62.56c-11.55,0-22.82,0-34.09,0-4.65,0-9.29-.08-13.94-.12-2.72,0-3.92,1.27-3.65,4a20.46,20.46,0,0,1,0,4c-.42,4.15,1,5.79,5.55,5.72,18.12-.27,36.24-.11,54.37-.12,1.59,0,3.18-.17,4.71-.25V287.38H346.53V274.69H397V262.25H332.4c0,11.84.05,23.29,0,34.74,0,3.25,1.29,4.27,4.49,4.24,14-.13,27.93-.06,41.89,0,1.75,0,3.51.15,5.28.24ZM242.53,326.5V262.3H229.58v50.53H191.93V301.09h25.16v-39H179v12.94h24.95v12.76H179V326.5ZM101.87,301.29H153v50.77h12.65v-64.6H140.2V262.24H101.87ZM281.66,159.6v63.84h37.9V210.5h-24.9V197.91h24.93V159.6ZM255.4,236.54c0,20.51,0,40.43,0,60.35,0,3.61,1.7,4.35,4.95,4.34,17.45,0,34.9.17,52.35.21,2.45,0,4.9-.41,7.33-.63V287.33H268.44V236.54ZM243,133.41H229.7v64.24h38.52v-38h-13v25H243Zm-52.42,38.84v-12.6H152.16v38h38.6V184.93h-24.9V172.25ZM338.75,410c5.32,0,9.26-.26,13.14.07,4.33.36,7.47-1.06,10.51-4.17C376,392,389.16,377.67,403.69,364.82c8.69-7.69,5.41-16.14,6.34-25.61Zm71.2-250c0-6.26.17-11.25-.09-16.22a7.89,7.89,0,0,0-2.07-4.68q-23.66-23.92-47.53-47.65c-.91-.91-2.07-2.14-3.15-2.18-5.69-.22-11.4-.1-17.74-.1ZM306.56,262H281.67v12.45h38.47V236.61H281.52v12.72h25ZM158.28,89.19c-3.28,0-6.94.26-10.55-.06-4.65-.42-7.94,1.1-11.28,4.53-14.8,15.25-29.95,30.14-44.95,45.2-.91.91-2.19,2-2.24,3.11-.22,5.51-.1,11-.1,17.92ZM89.1,338.62c0,6.5-.17,11.42.11,16.31a7.9,7.9,0,0,0,2.15,4.66Q115,383.52,138.9,407.26c1,1,2.29,2.51,3.5,2.57,5.53.28,11.09.12,17.26.12Zm111,87.69c3.85,4,6.74,7.48,10.1,10.4a11,11,0,0,0,6.38,2.75c21.94.2,43.88.13,65.83.1,1.3,0,3.09.24,3.83-.48,4.19-4,8.12-8.35,12.34-12.77ZM298.93,72.88c-3.49-3.69-6.05-6.8-9.06-9.39a10.26,10.26,0,0,0-6-2.57c-23.12-.18-46.24-.13-69.35-.06-1.56,0-3.54.25-4.57,1.2-3.48,3.21-6.61,6.78-10.46,10.82Zm-226.78,226V200.31c-3.46,3.4-6.52,6.17-9.27,9.22a7.73,7.73,0,0,0-2.07,4.57q-.18,35.15,0,70.29a6.53,6.53,0,0,0,1.22,4C65.07,291.87,68.42,295.06,72.15,298.85Zm354.23-98.49v98.51c3.55-3.36,6.74-6,9.46-9.1a9.32,9.32,0,0,0,2.36-5.55c.16-23.1.13-46.21,0-69.31a7.11,7.11,0,0,0-1.38-4.48C433.73,207.07,430.26,204,426.38,200.36Zm-93.63-67.05v64.27h12.41V133.31ZM204,133.19v64.38h12.29V133.19Zm20.77-84.85h48L249,24.14C241.33,31.81,233.17,39.94,224.76,48.34ZM48.48,225.18l-23.6,23.37,23.6,24.16Zm402.18,47.89,22.66-22.7-22.66-23ZM89.33,409.72h34.08l-34.08-32.1Zm.12-320.29V123l32-33.53Zm286.38,0c12,11.44,23.07,22,33.79,32.21V89.42Zm33.91,289.41L377.9,409.67h31.84Zm-161,95.62,22.53-21.9H226.39C234.48,460.5,242.09,468,248.69,474.45ZM191.38,352.2V339.12H179V352.2Zm25.78-13.11H204.65v13h12.51Z" id="svg_1"/><path d="M114.48,287.67V274.78h12.58v12.89Z" id="svg_2" fill="#790914"/><path d="M294.26,185.19V172.08h13.11v13.11Z" id="svg_3" fill="#790914"/></g></g></g></svg>