<svg xmlns="http://www.w3.org/2000/svg" width="506" height="406"><rect id="backgroundrect" width="100%" height="100%" x="0" y="0" fill="none" stroke="none" style="" class=""/><g class="currentLayer" style=""><title>Layer 1</title><g id="Capa_2" data-name="Capa 2" class="" fill-opacity="1" fill="#790914"><g id="Capa_1-2" data-name="Capa 1" fill="#790914"><path fill="#790914" d="M285.4236379265785,0 c12.93757844974266,5.13925196778402 25.86702498578859,10.32729386674447 38.82899917662144,15.450282394886017 q22.874548989565824,8.944900333881378 45.814153288705484,17.80035116810268 c2.0248001742427135,0.8131727576255798 3.3584035820538816,1.463710924950945 3.350271668357152,4.171576339679461 c-0.09758072873397028,30.48584804826646 0,60.98795682191849 0,91.46567450749217 a23.492560471481738,23.492560471481738 0 0 1 -0.2520835568026847,2.382596234128087 H273.87657484187 a18.629787753121718,18.629787753121718 0 0 0 -0.42284981845526204,2.6265480226406623 c0,13.823936879634857 0,27.647873759269714 -0.04879036436698514,41.47181063890457 c0,2.187434764542928 0.29274220437773835,3.407193900981298 2.943685289544362,3.6674093230118388 c20.223607164589907,2.0166684544214775 40.430950501786356,4.195971305267676 60.63829228797886,6.310220785294973 c0.9188852122393953,0.09758072873397028 1.8540338641212628,0 3.122583319487049,0 c2.11424909227631,-13.718225103585269 4.212234744910148,-27.34700070751046 6.35901110422239,-41.260387086805395 h26.948544691390452 v4.163444425982732 q0.11384418655226991,81.70760141598521 0.13823937025041477,163.44772428274155 c0,1.8946924632274431 -0.8131727576255798,4.3911329687283285 -2.1223808120975463,5.602760191469969 Q323.70780043652303,360.8616657177208 275.74688707404675,404.1875092513692 c-0.5854844087554767,0.5285622730690775 -1.2278908562596058,1.0002025073895027 -2.488308591804156,2.0085367346002414 V316.32420271635056 H232.56740868091583 V406.2367204828661 c-1.3986571663810565,-1.0164659470319748 -2.146776165436748,-1.455579205129709 -2.764787453477169,-2.0329318940639496 q-46.42403285692467,-42.90299332744212 -92.75861621418926,-85.90356961924499 a8.424469489820297,8.424469489820297 0 0 1 -2.5452308244283017,-5.4401257950452475 q-0.19516145746794056,-82.72406736301718 -0.09758072873397028,-165.45626198671926 c0,-1.057124546138155 0.12197591849072431,-2.106117372455074 0.21955665328330376,-3.6348820559759076 c7.863380628279515,0 15.547863808242823,-0.11384418655226991 23.216081609808725,0.15450282201010523 c0.8131727576255798,0 2.106117372455074,2.106117372455074 2.309410561861469,3.366535107999624 c2.0491953337064217,12.555387036518084 3.9113609176489206,25.143301727823086 5.911765932427926,38.30043564336165 L232.56740868091583,178.68658622753628 v93.84013747079507 h40.43908086447914 V261.6789834774863 H244.3665533352032 c-0.09758072873397028,-1.7645849460876661 -0.22768837310453982,-3.0737930005596326 -0.22768837310453982,-4.383001055031599 c0,-30.632216290791803 -0.056922093276134955,-61.25630532089872 0.08131727697427982,-91.88852161169052 a10.90464655567871,10.90464655567871 0 0 1 2.2362250834703445,-6.106927595888578 c3.8707025124182337,-5.001012536947513 8.131727576255798,-9.709282384828555 12.896919656760986,-15.32830679144297 l-15.165671619516274,2.6346797424618984 V131.40872259550633 H134.66954088669354 c-0.11384418655226991,-1.5287647804585802 -0.2846104603220656,-2.6834700613893148 -0.2846104603220656,-3.8381752453823026 c0,-30.087392032146454 0.04879036436698514,-60.17478406429291 -0.08944900285412505,-90.26217609643936 c0,-3.01687096181098 1.089651522360846,-4.195971305267676 3.699936202296783,-5.204305726353908 q38.83712953931422,-14.994906084896797 77.60107650836972,-30.201235721892772 C216.95448180807944,1.3742620069173483 218.23930866212322,0.6424064959730025 219.55664455890656,0 z" id="svg_1"/><path d="M0,86.19631230831146 L95.0355024171472,49.27826787130698 l19.8251511484699,-7.717009283746279 c0.13010763831196037,1.3742620069173483 0.31713736384144653,2.488308591804156 0.32526910789711927,3.610487090387693 c0,28.729395015875525 -0.04065863848713991,57.45879003175105 0.08131727697427982,86.19631230831146 c0,3.0900564402021047 -0.9758073479257945,4.106522581109573 -3.943887796933865,4.692006795989556 c-28.314675172362058,5.562101786239282 -56.58868922523652,11.294969882600014 -84.87084294682745,16.9871784104771 c-1.5775551963237433,0.31713736384144653 -3.138846759129521,0.7155920228330004 -5.1473834937297624,1.1791005373321894 c1.6263455152511597,6.993286025780776 3.2526910305023193,13.823936879634857 4.879036545753479,20.58953397491905 c5.163646933372235,21.467760491114518 10.408611452707817,42.911126792142795 15.450282394886017,64.4032799223396 a7.692614318158064,7.692614318158064 0 0 0 5.106725088499076,6.025610009925231 c6.594830785162742,2.740392100137967 13.051422139488977,5.838580260161308 20.475690285172732,9.205115368160932 L44.04143642892109,182.96387046575546 c6.0662688029069045,-1.8621655839424989 12.043088881655706,-3.886965952060706 18.12562151195607,-5.497048027669393 c2.805446052583349,-0.7399872307655819 3.960151236576337,-2.106117372455074 4.252893537891822,-4.919695338735153 c0.5692209206441312,-5.383203562421102 1.3173398712309492,-10.766407124842203 2.301278842040233,-16.08455770419539 c0.22768837310453982,-1.2360225760808419 1.5531599399222884,-3.0737930005596326 2.602152863176954,-3.2526910305023193 c14.181733327271218,-2.2606202429340527 28.395991207321458,-4.277288891231024 42.61025374038354,-6.334615750883188 c0.23582009292577588,0 0.5041671136053694,0.13823937025041477 1.26041773554455,0.3577960114165002 v3.773121486812414 q0,84.5699667930603 0.06505381915598019,169.1399335861206 c0,2.903026690438182 -0.756250670408054,4.610689597777196 -3.3746670216963537,6.12319103553105 c-18.52407597707213,10.693221452575585 -36.94243862709072,21.573473818168054 -55.83244451649989,32.64888745947019 c-1.9353512562091169,-5.879239053142982 -3.3746670216963537,-11.66902938212786 -5.692209303379059,-17.076627910137177 c-5.423862355402775,-12.441543346771766 -6.570435819574527,-25.257145417569404 -4.423659848013273,-38.495598470075265 c0.4065863788127899,-2.488308591804156 -0.10571245461381551,-4.269156977534294 -2.528967190910336,-5.188042286711436 c-6.879441560532484,-2.61028458299819 -9.156325436984503,-7.554374887321558 -7.586901766606502,-14.572055878690549 a31.770659392270773,31.770659392270773 0 0 0 0.3577960114165002,-4.32607921015844 l14.986774171200068,2.146776165436748 c0.2683470206795935,-2.350069354843143 0.5041671136053694,-4.456186727298217 0.8131727576255798,-7.082734749938879 c-4.537503925510578,-1.3498667505158934 -8.985559126863052,-2.8298412120470573 -13.531194190568385,-3.9520197106305943 c-2.48017687198292,-0.6180112880404209 -3.521037978478603,-1.740189786623958 -3.773121486812414,-4.342342649800912 c-0.6017478483979488,-6.163849440761737 -1.5612916597435245,-12.2870400885418 -2.4395182728767395,-18.702973425388336 L7.440530422073266,250.40028129978964 c-0.536694041359187,-11.246179175921611 -1.089651522360846,-22.18335338638724 -1.5775551963237433,-33.12052604584892 c-1.3173398712309492,-29.103453739901397 -2.488308591804156,-58.21503474048768 -4.025204995146225,-87.30222775500351 c-0.2683470206795935,-4.976617183608312 0.4472450263878436,-8.985559126863052 4.261025063837565,-12.31143582963199 c1.292944711767241,-1.1303101214670264 2.268751962755289,-2.6346797424618984 3.8544386850247747,-4.513108959922363 L1.504369620994872,114.44593837511547 L0,95.14121264219284 z" id="svg_2" fill="#790914"/><path d="M505.79345524311066,95.14121264219284 c-0.4960353937841333,7.806458783406356 -1.1059149620033182,15.604785653115982 -1.463710924950945,23.41937479921512 q-2.943685289544362,64.3626250068678 -5.797921854930621,128.7252500137356 c-0.04065863848713991,0.9188852122393953 -0.20329318940639496,1.8377704244787907 -0.34966429159526413,3.0900564402021047 l-24.62287165926398,-3.01687096181098 c-0.8619630765529962,6.505382061004639 -1.7971118253726104,12.750549087729723 -2.4395182728767395,19.036374131934508 c-0.24395183698144862,2.268751962755289 -1.08151980253961,3.2526910305023193 -3.3258767027689373,3.7649899608666715 c-4.594426158134723,0.9920707875682666 -9.131929695894314,2.293147122218997 -13.921518292991664,3.5291698921753323 c0.27647874050082955,2.707865220853023 0.5204305532478415,5.0741978214631445 0.8131727576255798,7.733273111139738 l15.621047929505494,-2.2524885231128167 c0,4.472450166940689 0.1870297376467045,8.505787075783644 -0.12197591849072431,12.498465191644925 c-0.08944900285412505,1.1303101214670264 -1.4393157654872368,2.6590749019256066 -2.56962598389201,3.122583319487049 c-6.830650853854081,2.764787453477169 -8.87171466161476,7.5381118354300725 -7.3185548186302185,14.637109637260437 c2.1955664843641642,10.140264504731533 -0.07318555109443459,19.80075695838366 -3.7243311678849977,29.274219274520874 c-2.504572031446628,6.505382061004639 -4.407396408370801,13.30350681107575 -6.684280284822819,20.329318940639496 c-1.276681272124769,-0.6586699356154746 -2.2199616438278724,-1.08151980253961 -3.0981881600233407,-1.6263455152511597 c-16.9871784104771,-10.384216487119602 -33.9336988034745,-20.833486732809092 -50.97779905882476,-31.11198834187121 c-2.4395182728767395,-1.463710924950945 -3.195768991753667,-3.0737930005596326 -3.187637271932431,-5.822316820518836 c0.08944900285412505,-32.795258804003424 0,-65.58238414330617 0.15450282201010523,-98.39390367269516 a10.44113833199276,10.44113833199276 0 0 1 2.293147122218997,-6.082532242549377 c6.562303905877798,-8.042278852097695 13.401086673428608,-15.865000687395536 20.833486732809092,-24.5740801770836 l-23.00465805770955,4.000810029558011 V146.7207547025282 c7.88777559386773,1.1628370007519706 15.596653739419253,2.309410561861469 23.31366302316553,3.439720780266242 c6.432196388738021,0.9514120915243396 12.856261639281286,1.9841415751365332 19.30472107991079,2.764787453477169 c2.4395182728767395,0.29274220437773835 3.480379573247916,1.2278908562596058 3.7487265212241994,3.7324630815817272 c0.6017478483979488,5.5133114673118655 1.6263455152511597,10.985964141642057 2.2443568032915806,16.49927599670491 c0.26021527662392074,2.4395182728767395 1.284812991946005,3.496643012890388 3.553564857763547,4.139049460394517 c6.12319103553105,1.6995309936422842 12.197591364383698,3.6348820559759076 18.702973425388336,5.62715554480917 l-23.175423592329025,71.55920267105103 c8.375679558643867,-3.8056483660973583 15.986976290838584,-7.204710353381927 23.508824298875197,-10.766407124842203 c0.7643823902292901,-0.36592773123773625 1.2685494553657861,-1.6995309936422842 1.512501340816108,-2.6753383415680787 q10.343557694137928,-42.626514465769105 20.58140206122232,-85.30182351572648 a8.253703179698846,8.253703179698846 0 0 0 0,-1.6263455152511597 q-12.856261639281286,-2.61028458299819 -25.728785554952083,-5.22056916599638 c-21.508420059598166,-4.334210736104183 -43.008706654495654,-8.70094835149331 -64.53339054148728,-12.93757844974266 c-2.4395182728767395,-0.4797719056727878 -3.3584035820538816,-1.301076431588477 -3.350271668357152,-3.91949283134565 c0.09758072873397028,-29.127847929987638 0.056922093276134955,-58.26382932467595 0.06505381915598019,-87.39167725466359 c0,-0.5285622730690775 0.11384418655226991,-1.057124546138155 0.21955665328330376,-2.097985652633838 L505.79345524311066,86.19631230831146 z" id="svg_3" fill="#790914"/></g></g></g></svg>