<svg xmlns="http://www.w3.org/2000/svg" viewBox="0 0 499.39 524.36"><g id="Capa_2" data-name="Capa 2"><g id="Capa_1-2" data-name="Capa 1"><path fill="#790914" d="M0,346.39c1.21-2.61,2.89-5.12,3.54-7.86,1.31-5.52,3.25-10.46,9.33-13.75l-5.5-3.29c.45-12.05,6.27-19,18.26-20.94,9.86-1.6,19.78-2.78,29.69-4.06,11.84-1.53,14.18-4,14.24-16.05,0-6.47-.53-13-.26-19.42.35-8.52.82-8.8,8.89-11-.4-1.05-.78-2.08-1.18-3.1-1.22-3.14-2.77-5.83.15-9.42,1.72-2.11,1.48-6,1.7-9.11.29-4-.27-8,.36-11.94.46-2.85,2.27-5.48,4.29-7.88.39-4.3-1-9.19,4.68-11.85.67-.31.84-2.08.93-3.19.64-8.37,5.93-13.79,11.92-18.7.67-.55,2.31.09,3.82.19a75.14,75.14,0,0,0,2-7.37A19.76,19.76,0,0,1,113,156.07c5.25-4.92,3.54-10.73,1.77-17-3.45-12.28-5.81-24.88-8.41-37.39-.33-1.61.58-3.48.78-4.5-.89-1.17-1.87-2-2.17-3C98.84,73.53,92.6,52.9,86.9,32.12c-.85-3.11.92-6.93,1.54-10.82C83.26,18,81.93,12.78,83,6.54a34.4,34.4,0,0,1,15.7,19.13C104,40.48,109.47,55.24,115.4,69.79c7.81,19.17,16.16,38.12,24.49,57.65A48.18,48.18,0,0,0,143.7,124c8.32-9.11,18.83-14.73,30.31-18.61,8.47-2.87,17.07-5.46,25.76-7.54,1.92-.46,4.47,1.77,7.06,2.9,1.49-3-1.33-9.54,4.8-10.23,3.84-.43,7.94,1.43,12.51,2.38,3.39-5.1,11.64-7.85,18.78-5.36,3.42,1.19,6.5.55,10.19-.38,8.34-2.11,16.9-5.87,25.92-1.24,2.39,1.22,6-.18,8.94.24,8.74,1.22,17.69,1.89,26,4.48,4.62,1.44,9.87,1.34,15,4.57l-5.06.93c7,3.46,16.32,3.69,14.41,15.45l1.57-.78,3.78-7.19,16.74,10c.51.44,1.44,1.88,2.65,2.19,3.61.94,6.81,2,6.9,4.72,6.76,4.64,12.81,8.43,18.45,12.75,5.26,4,10.08,8.62,15.5,13.32,2.66-.68,1.68-3.15,2.08-5.64.3-1.91,3.33-3.39,5.32-5.21-.86-1.25-1.65-2.4-2.91-4.2,7.89-1.37,6.56-8.27,8.76-13.09.67-1.46,1.25-3.56,2.43-4.07,4.52-1.93,5.61-6,7.44-9.87s3-8.76,8.7-9.1c.23,0,.46-.45.64-.73,5.06-8,10.07-16.11,15.17-24.13,2.65-4.17,5.69-8.11,8.15-12.38,10.09-17.56,20-35.21,30-52.83.89-1.57,1.68-3.2,2.79-5.34.71,2.29,1.24,4,1.81,5.83l5.05-1.47c-.52,1.71-.63,3-1.25,3.93C474.36,44.7,456.07,84,437,122.93c-5.48,11.18-11.07,22.31-17,33.26-3,5.56-3.1,10.62.25,15.89,2.84,4.49,6,8.84,8.28,13.61,6,12.58,14.83,23.91,16.63,38.59,4.69-.73,8.92-1.75,13.17-1.9,2.48-.09,6.41-3.42,7.6,2.17.08.41,2.78.21,4.25.37,3.65.41,7.29.85,10.94,1.28l.49,1.8-9,7.09,3.54,1.57c-3.62,1.3-6.48,2.71-9.51,3.35-5.09,1.07-8.85,6.67-14.9,4.34-.69,1.83-2.43,4.06-1.9,5.42,4.57,11.89,1,24.41,3.05,36.47.36,2.06-1.23,4.44-1.86,6.7a16.28,16.28,0,0,0-.94,4.28c0,2.79,1.28,5.93.37,8.3-2.15,5.6,1.34,12-3.11,17.32-1.45,1.75-.25,5.46-1.08,8-3.23,9.95-6.62,19.85-10.33,29.63-1,2.62-3.3,4.75-5.07,7.06-.86,1.13-2.5,2.06-2.69,3.25-1.11,7.11-6,11.53-10.65,16.33-4.4,4.51-9.72,9.22-11.53,14.83-1.54,4.78-5,7.2-7.43,10.63-2.89,4.12-7.61,7-11.7,10.22-2.45,1.92-5.25,3.4-7.85,5.15-9.07,6.12-18.11,12.1-28.73,15.62-7,2.33-13.33,6.74-20.18,9.72-5.55,2.42-11.4,4.21-17.18,6.08-3.61,1.17-7.34,2-11.41,3l-2-2.51c-.47.18-1.05.32-1.05.41.4,4.24-3.6,3.7-5.14,3.44-5.09-.84-6.3-1.09-9.86,1-.57.34-1.14,1.07-1.64,1-9.43-1-11.21,6.88-14.95,12.6-3.93,6-8,12-12.23,17.75-6,8.21-9.88,17.08-9.15,28.2-2.8-2.67-5.2-4.92-7.53-7.23-.57-.57-1.36-1.4-1.29-2,1-9.34-6.15-15.85-8.27-24.1-1.72-6.7-3.64-13.35-5.68-19.95-.9-2.91-1.66-6.36-3.7-8.3s-5.65-3.11-8.74-3.83c-20.36-4.69-39.41-12.63-55.82-25.43-22.71-17.73-44.88-36.25-60.15-61.33-3.75-6.17-8.51-11.94-8.4-19.85,0-2.68-6.94-8.23-9.67-7.8-6.2,1-12.34,2.28-18.65,3.48L57,340.53,42.34,352l-2.25-5.44c-4.3-.76-6.46,1.53-9.16,4.23-2.3,2.31-6.42,3.38-9.89,3.85-4.68.63-9.51.15-15.39.15l4.68-7.87L0,347.39ZM303.87,136.48c-.39,0-1.65.16-2.92.19-7.6.21-14.05-5.12-21.88-4.31-4.75.48-9.6-.1-14.41-.05-7,.08-13.94.4-20.91.39-1.92,0-4.07-1.6-5.72-1.12-8.83,2.6-17.38,5.85-26.68,7-4.25.54-8,4.53-12.09,6.73-7.34,3.93-14.69,7.84-22.2,11.44-3.16,1.52-7,1.5-9,5.29-1.27,2.4-3.43,4.37-5.34,6.39a4.18,4.18,0,0,1-2.56,1.07c-5,.33-6.38,2-4.81,7,1.35,4.34,2.64,8.95,5.15,12.63,8.14,11.93,10.22,26.29,16.38,39,5.85,12.09,10.59,24.71,15.89,37.07,1.61,3.76,4.66,5,8.58,4.22,7.6-1.56,15.23-3,22.77-4.81,7.06-1.7,14-3.8,21.27-5.78V261c3.59-.83,7-1.79,10.5-2.38,4.58-.77,9.79-.12,13.68-2.13,4.32-2.23,7.67-1.61,11.67-.45.73.21,2-1.29,3-2,.75-.55,1.39-1.44,2.21-1.64,8.89-2.1,17.79-4.1,26.69-6.1,2.86-.64,5.75-1.11,8.59-1.77,5.46-1.26,10.94-2.43,16.31-4,3.21-.93,7.45-1.65,9.09-4,4-5.72,9.39-10.47,12.06-17.32,3.1-8,6.66-15.63,12.49-22.42,3.93-4.59,5.1-11.55,7.42-17.21-2.66-3.93-6.13-5.21-10.65-5.31a13,13,0,0,1-8-3.16c-3.53-3.4-6.17-7.71-9.29-11.55a6.11,6.11,0,0,0-2.66-1.75c-4-1.41-8.27-2.34-12.16-4.06C328.1,150.18,320,146.3,312,142.27,309.34,140.93,307.08,138.8,303.87,136.48ZM328,334.41c-1,4.62-1.67,8.59-2.75,12.45-.74,2.66-3.22,5.33-2.86,7.68.75,4.78-5.43,5-5,9.07-7,1.37-6.41,7.24-7.41,12.28a16.53,16.53,0,0,1-4.53,8.83c-3.21,3.41-9.23,6-7.81,13.91.85,4.69-4,10.4-6.25,15.64-1.63,3.74-6.47,6.42-4.05,11.5,4.52-1.21,9.24-1.6,13-3.68,6.71-3.68,15.9-2,20.72-9.59a1.51,1.51,0,0,1,.79-.42c4.85-1.55,9.76-2.93,14.53-4.7,1.6-.6,2.94-2.06,4.2-3.32,1.41-1.4,2.35-3.37,3.93-4.5,6.24-4.49,13.75-7.16,18-14.36,2.39-4,6.21-7.16,9.12-10.91a70.44,70.44,0,0,0,5.48-8.54c1.3-2.28,1.67-6.08,3.47-6.85,4.18-1.8,3.92-5.94,5.75-8.78s1.6-6.86,2.28-10.37l1.3-.18.61,2.39a244.43,244.43,0,0,0,8.94-27.14c1.53-5.61,1.78-11.74,4.21-16.87s.34-10.5,1.92-15.91c1.77-6.1-.8-13.45-1.49-20.4-2.8.56-6.28,1-9.61,2q-16.69,4.88-33.29,10.1c-2.94.93-3.92,3.21-4.32,6.43-.8,6.44-1.83,13.14-9.54,15.59-.56.18-.93,1.14-1.29,1.8-1.87,3.42-3.72,6.87-5.77,10.66,3.34,3.72,3.08,5.74-2.83,13.19l4.55-1.24c-2.06,2.17-4.18,3.37-4.19,4.58,0,6.38-3.41,7-10.08,4.75C332.68,333.81,329,333.92,328,334.41Zm1.49-54.83-1.15-1.17c-10.66,2.67-21.33,5.28-32,8-4.6,1.2-9.06,2.92-13.68,4-16,3.86-32,7.54-48,11.35-2,.47-3.83,1.39-5.78,2-2.16.62-4.71.56-6.47,1.72-3,2-5.81,3.45-10.25,1,.29,2.11.22,3.65.74,4.94,1.35,3.34,3.11,6.51,4.45,9.84,3.75,9.3,5.94,19.24,12.16,27.5,1.15,1.53,1,4.07,1.38,6.16.19,1.1-.09,2.33.3,3.33,4.33,11.13,8.61,22.29,13.24,33.31,1.88,4.48,4.57,8.63,7.31,13.72,1.95-2.42,3.17-4.11,4.58-5.64,3.88-4.22,5.81-9.41,8.25-14.5,3.61-7.54,8.82-14.32,13.32-21.44,3-4.77,6-9.56,9.2-14.63A95.9,95.9,0,0,1,291,340c1.94-3.64,4.74-6.86,6.45-10.59,2.67-5.81,5-11.45,10.14-16,3.74-3.27,5.44-8.83,8.26-13.22C320.27,293.28,324.91,286.45,329.48,279.58ZM122.2,334.49c4.2,7.31,8.64,15,13.07,22.74,2.19,3.79,4,7.86,6.61,11.33A127.22,127.22,0,0,0,171,396.21c7.58,5.3,14.71,11.28,22.54,16.16,4,2.49,9.1,3.23,13.71,4.76l.92-1.35c-2.12-4.52-4.06-9.15-6.43-13.55-2.6-4.84-.68-10.46,4.59-11.16-2.12-1.79-4-3.39-5.87-4.94-5.41-4.41-5.55-5.28-1.66-10.72l-7-6.34,5.39-5.9c-8.89,1.95-10.17-3.14-11.86-8.65-1.57-5.12-4.49-9.8-6.51-14.79-.64-1.58-2.5-2.35-1.33-5.34,2.23-5.75-5.62-13.24-11.56-11.67C151.49,326.51,137.15,330.45,122.2,334.49Zm13.51-133c-2.63,2.44-4.75,3.58-5.59,5.33-6.11,12.69-12,25.51-17.9,38.3-.13.28,0,.66-.09,1-2.06,12.18-5.55,24.15-4,36.8.65,5.12,1.77,6.7,6.93,5.1,3.75-1.17,7.22-3.68,11-4.19,10.87-1.47,21.69-2.85,32-6.78a7.79,7.79,0,0,1,2.62-.33L152.27,256l2.42-1.15c-1.63-1.84-4.29-3.51-4.18-5,.44-5.72-2.88-10.31-3.89-15.55-.65-3.37-2.28-6.55-3.46-9.81-1.6-4.42-3.28-8.81-4.75-13.27C137.4,208.2,136.7,205.06,135.71,201.45Zm267.54,31.08-9-21.95L379,237.07Z" transform="translate(0)"/></g></g></svg>