<svg xmlns="http://www.w3.org/2000/svg" width="498.5" height="498.15"><rect id="backgroundrect" width="100%" height="100%" x="0" y="0" fill="none" stroke="none"/><g class="currentLayer" style=""><title>Layer 1</title><g id="Capa_2" data-name="Capa 2" class="selected"><g id="Capa_1-2" data-name="Capa 1"><path fill="#790914" d="M498.5,241.6c-1.18,69.59-22.18,125-65.17,172.09-29.51,32.3-64.21,56.64-105.6,71a239.84,239.84,0,0,1-103.65,12.22c-54-5.42-101.4-26.17-141.56-62.56C38.88,394.81,12,345.89,3.13,287.4c-8.22-54.11-.42-105.76,25.39-154.08C60.94,72.61,110,31.42,176,11A238.73,238.73,0,0,1,292.26,4.22c49.66,9.33,92.52,32.06,129,67.1C459.41,108,484.05,152.17,494,204.19,496.7,218.5,497.51,233.17,498.5,241.6ZM249.2,27.34C186.69,25.05,103.73,56.27,55.81,138.46,11.58,214.32,18.1,316.81,72.54,384.7c45.2,56.38,103.77,85.56,176.66,86.87Z" id="svg_1"/></g></g></g></svg>