<svg xmlns="http://www.w3.org/2000/svg" width="276" height="422"><rect id="backgroundrect" width="100%" height="100%" x="0" y="0" fill="none" stroke="none" style="" class=""/><g class="currentLayer" style=""><title>Layer 1</title><g id="Capa_2" data-name="Capa 2" class="" fill-opacity="1" fill="#790914"><g id="Capa_1-2" data-name="Capa 1" fill="#790914"><path fill="#790914" d="M136.75633239746094,422.01171875 h-2.7690629959106445 c-0.6202701330184937,-0.48735511302948 -1.2183878421783447,-1.0190151929855347 -1.8663485050201416,-1.46206533908844 c-7.293712139129639,-4.984313488006592 -14.991707801818848,-9.470195770263672 -21.820219039916992,-15.013860702514648 c-21.18886947631836,-17.201419830322266 -39.46468734741211,-36.93376541137695 -52.29652786254883,-61.39012908935547 C49.33146667480469,327.6309814453125 39.7948112487793,311.542724609375 31.011343002319336,295.0501708984375 c-6.512836456298828,-12.27248764038086 -12.438631057739258,-24.888338088989258 -15.839040756225586,-38.451210021972656 C9.966464042663574,235.72021484375 9.468032836914062,214.2544403076172 8.199801445007324,192.95480346679688 c-1.5783659219741821,-26.583005905151367 0.5538126230239868,-53.094017028808594 4.635411739349365,-79.3613510131836 c3.6385490894317627,-23.49273109436035 3.322875738143921,-46.60333251953125 -3.22318959236145,-69.54779052734375 c-3.151193857192993,-11.076251983642578 -6.13624382019043,-22.152503967285156 -9.16006088256836,-33.27859878540039 C-1.2593179941177368,4.497910022735596 1.9749476909637451,0.0064899916760623455 8.498860359191895,0.16709564626216888 c2.857673168182373,0.05538126453757286 5.748575210571289,1.0467058420181274 8.517638206481934,1.9328060150146484 c9.099141120910645,2.92413067817688 17.998910903930664,6.606984615325928 27.25311851501465,8.894230842590332 C75.58218383789062,18.736433029174805 107.559326171875,21.051368713378906 139.66937255859375,20.497556686401367 c17.00204849243164,-0.2713681757450104 33.98748016357422,-2.2152504920959473 50.95075988769531,-3.6773157119750977 c16.531307220458984,-1.4066840410232544 32.974002838134766,-3.6053202152252197 48.990264892578125,-8.046896934509277 c7.155259132385254,-1.9826492071151733 14.050227165222168,-4.923394203186035 21.044879913330078,-7.531851768493652 C267.7773132324219,-1.411270260810852 273.0274658203125,0.17817190289497375 276.0401916503906,6.098428726196289 v2.7690629959106445 c-0.11076252907514572,0.14399127662181854 -0.2879825532436371,0.26583003997802734 -0.33228757977485657,0.4264357089996338 c-3.5665533542633057,13.34134578704834 -7.31032657623291,26.632848739624023 -10.622126579284668,40.03511428833008 c-3.034893274307251,12.27248764038086 -5.538125991821289,24.705581665039062 -3.8766884803771973,37.454345703125 c1.1076252460479736,8.766853332519531 2.597381114959717,17.489402770996094 4.0982136726379395,26.200876235961914 c1.9161916971206665,11.148247718811035 4.170208930969238,22.24111557006836 6.003328800201416,33.40597915649414 a178.32766723632812,178.32766723632812 0 0 1 1.6060566902160645,46.29873275756836 c-2.1820218563079834,22.368492126464844 -4.4305009841918945,44.73698425292969 -6.8838911056518555,67.07225036621094 c-1.7777385711669922,16.021799087524414 -3.649625301361084,32.04359817504883 -6.0919389724731445,47.96571350097656 c-3.970836639404297,25.791053771972656 -15.506753921508789,47.47282028198242 -36.551631927490234,63.46692657470703 q-22.98876190185547,17.46725082397461 -46.28211975097656,34.51360321044922 a86.81012725830078,86.81012725830078 0 0 1 -28.83702278137207,13.562870979309082 C144.44325256347656,420.2948913574219 140.58871459960938,421.1200866699219 136.75633239746094,422.01171875 zm14.23298454284668,-281.3977355957031 a84.47857666015625,84.47857666015625 0 0 0 4.945547103881836,32.121131896972656 c2.4810805320739746,7.050034523010254 7.066648960113525,12.48293685913086 13.93946361541748,15.246461868286133 s11.22578239440918,7.853063106536865 15.534443855285645,13.247198104858398 c9.785868644714355,12.2614107131958 13.623790740966797,27.136817932128906 16.930051803588867,41.890384674072266 c3.6717777252197266,16.365161895751953 4.4305009841918945,33.228755950927734 4.192361831665039,50.03696823120117 c-0.2879825532436371,20.972883224487305 0.6756514310836792,42.05653381347656 -4.563416004180908,62.669437408447266 c-2.2152504920959473,8.755777359008789 -2.4146230220794678,18.187206268310547 -8.789006233215332,25.946121215820312 c0.7199563980102539,-0.2602919340133667 1.052243947982788,-0.371054470539093 1.3789933919906616,-0.5039694905281067 c28.07830047607422,-11.286701202392578 40.70522689819336,-40.98213577270508 38.213069915771484,-68.052490234375 c-1.356840968132019,-14.842178344726562 -2.2152504920959473,-29.811735153198242 -1.882962942123413,-44.69267654418945 c0.4319738447666168,-19.029001235961914 7.088801860809326,-36.08643341064453 19.4554386138916,-50.87876892089844 c4.524649143218994,-5.410749435424805 8.146583557128906,-11.580222129821777 12.006657600402832,-17.517093658447266 c4.530187606811523,-6.961424350738525 6.064248085021973,-14.80894947052002 5.682117462158203,-22.955533981323242 c-0.7254945039749146,-15.473525047302246 -2.4423136711120605,-30.803056716918945 -5.887028217315674,-45.96644592285156 c-5.161533355712891,-22.75062370300293 -14.282828330993652,-43.47429275512695 -29.39083480834961,-61.395668029785156 a9.370509147644043,9.370509147644043 0 0 1 -1.1076252460479736,-1.8885010480880737 c-4.807093620300293,-9.796945571899414 -6.180548667907715,-20.164318084716797 -5.034156799316406,-30.924896240234375 A34.98434066772461,34.98434066772461 0 0 1 233.1529541015625,19.904977798461914 c-12.737689971923828,1.8109673261642456 -25.032331466674805,3.760387659072876 -37.360198974609375,5.239067554473877 c-16.060565948486328,1.9328060150146484 -32.176513671875,4.4305009841918945 -48.32569122314453,4.984313488006592 A396.27508544921875,396.27508544921875 0 0 1 45.41047286987305,20.64708709716797 a16.221172332763672,16.221172332763672 0 0 0 -2.021416187286377,-0.19383440911769867 c0,0.34336382150650024 -0.06645750999450684,0.44858822226524353 -0.03322875499725342,0.5205838680267334 c0.28244444727897644,0.5538126230239868 0.5538126230239868,1.157468318939209 0.8694858551025391,1.7112809419631958 C47.78632736206055,28.909969329833984 49.28715896606445,35.627716064453125 49.54745101928711,42.76082229614258 c0.5538126230239868,13.93392562866211 -4.009603500366211,26.056882858276367 -12.488473892211914,36.856231689453125 a118.79833984375,118.79833984375 0 0 0 -15.379376411437988,25.77444076538086 a13.845315933227539,13.845315933227539 0 0 0 -1.1076252460479736,3.6607015132904053 c-1.0356296300888062,7.664766788482666 -2.098949909210205,15.335071563720703 -2.935206890106201,23.027530670166016 c-1.9771109819412231,18.153976440429688 -3.145655632019043,36.368873596191406 -2.4312374591827393,54.639156341552734 c0.38766881823539734,9.819097518920898 2.8299825191497803,19.233911514282227 8.77793025970459,27.225427627563477 c15.545519828796387,20.87873649597168 24.58928108215332,44.50992202758789 29.811735153198242,69.736083984375 c2.7247581481933594,13.158588409423828 4.657564163208008,26.477783203125 7.271559715270996,39.6640625 c3.7880783081054688,19.056692123413086 14.648344039916992,34.0262451171875 28.144758224487305,47.56696701049805 a4.4305009841918945,4.4305009841918945 0 0 0 0,-0.9525577425956726 a227.99911499023438,227.99911499023438 0 0 1 -6.91711950302124,-37.432193756103516 c-2.5198476314544678,-24.306835174560547 -4.923394203186035,-48.602596282958984 -4.142518520355225,-73.10326385498047 c0.4264357089996338,-13.435494422912598 0.060919389128685,-26.94298553466797 2.818906307220459,-40.20679473876953 c2.2152504920959473,-10.660893440246582 6.474069118499756,-20.26400375366211 15.916574478149414,-26.494396209716797 a16.276552200317383,16.276552200317383 0 0 1 8.246270179748535,-2.348165512084961 c2.1543312072753906,-0.04430500790476799 3.289647102355957,-0.48735511302948 4.303123950958252,-2.2152504920959473 a87.25318145751953,87.25318145751953 0 0 0 11.945737838745117,-46.46487808227539 c0,-0.19383440911769867 -0.2713681757450104,-0.38766881823539734 -0.45412635803222656,-0.6258082389831543 c-6.551603317260742,6.5294508934021 -14.753567695617676,9.724949836730957 -23.3210506439209,12.145111083984375 c-12.992444038391113,3.6717777252197266 -26.40024757385254,4.6021833419799805 -39.907737731933594,6.0919389724731445 a14.149911880493164,14.149911880493164 0 0 0 0.12183877825737,1.9328060150146484 c2.0158779621124268,11.076251983642578 4.807093620300293,21.930978775024414 9.28743839263916,32.303890228271484 A13.928387641906738,13.928387641906738 0 0 1 62.57866287231445,210.55496215820312 c-3.8102309703826904,2.7690629959106445 -8.789006233215332,2.901978015899658 -12.95921516418457,0.2935206890106201 c-3.8766884803771973,-2.425699234008789 -5.637812614440918,-6.025481224060059 -4.47480583190918,-10.926722526550293 c1.2017734050750732,-5.078461647033691 2.935206890106201,-10.04062271118164 4.624335765838623,-14.991707801818848 s3.8766884803771973,-9.752640724182129 5.34982967376709,-14.770182609558105 c1.0190151929855347,-3.516710042953491 1.1519302129745483,-7.288174152374268 1.6614378690719604,-10.943337440490723 l-0.9193289279937744,-0.5538126230239868 C52.61003494262695,160.05833435058594 49.165321350097656,161.1659698486328 46.135963439941406,162.9547882080078 s-5.765189170837402,4.352967262268066 -8.744701385498047,6.645751476287842 C28.242280960083008,157.5440216064453 25.667051315307617,143.8150177001953 28.175823211669922,128.81776428222656 c4.269895553588867,-25.525224685668945 32.409114837646484,-56.2950553894043 55.77446746826172,-62.996185302734375 c3.6274728775024414,-1.0411677360534668 7.199563980102539,-2.2540173530578613 10.815960884094238,-3.322875738143921 c9.763715744018555,-2.9075162410736084 19.250526428222656,-6.335616111755371 26.948522567749023,-13.418879508972168 c0.6036557555198669,-0.5538126230239868 1.9937254190444946,-0.8805620670318604 2.6583006381988525,-0.5538126230239868 s0.9802483320236206,1.5506752729415894 1.3291503190994263,2.425699234008789 a4.053908348083496,4.053908348083496 0 0 1 0,1.373455286026001 q0.049843136221170425,32.48664855957031 0.10522440075874329,64.97883605957031 c0.03876688331365585,18.33673667907715 0.37659257650375366,36.679012298583984 -2.320474863052368,54.9105224609375 a70.3342056274414,70.3342056274414 0 0 1 -10.444906234741211,27.55217742919922 c-9.2542085647583,-4.004065036773682 -14.997245788574219,-2.929668664932251 -17.16819190979004,3.2785706520080566 c9.28743839263916,0.23813943564891815 16.531307220458984,5.089537620544434 23.664413452148438,10.239995002746582 c3.1345794200897217,2.2650938034057617 6.296849250793457,4.508034706115723 9.597572326660156,6.507298469543457 c5.792880058288574,3.51117205619812 11.895895004272461,3.8434596061706543 17.893686294555664,0.6590370535850525 a70.01299285888672,70.01299285888672 0 0 0 9.198827743530273,-6.0919389724731445 c6.534988880157471,-4.945547103881836 12.80414867401123,-10.311991691589355 21.39931869506836,-11.342082023620605 c-3.2785706520080566,-9.902169227600098 -11.336544036865234,-10.43936824798584 -17.339872360229492,-5.410749435424805 c-4.530187606811523,-5.017542362213135 -8.085664749145508,-10.738426208496094 -9.05483627319336,-17.395254135131836 c-1.6614378690719604,-11.463921546936035 -3.50563383102417,-23.010913848876953 -3.732697010040283,-34.55790710449219 c-0.5538126230239868,-28.560117721557617 -0.25475379824638367,-57.14238739013672 -0.3212113082408905,-85.71358489990234 c0,-1.1740827560424805 -0.3821307122707367,-2.3426272869110107 -0.38766881823539734,-3.516710042953491 c-0.02769063226878643,-2.7690629959106445 -1.0633201599121094,-5.870413780212402 1.8718867301940918,-7.930596828460693 c3.2785706520080566,1.94942045211792 6.280235290527344,4.19789981842041 9.619726181030273,5.637812614440918 c9.032683372497559,3.8766884803771973 18.275815963745117,7.282635688781738 27.31403923034668,11.170400619506836 c7.8364481925964355,3.3727190494537354 16.365161895751953,5.981176376342773 23.08844757080078,10.959952354431152 c21.991899490356445,16.28209114074707 36.14734649658203,38.213069915771484 42.64357376098633,64.87361145019531 c2.5863049030303955,10.577821731567383 2.641686201095581,21.216562271118164 -2.176483631134033,31.362409591674805 c-2.9518213272094727,6.208239555358887 -3.4613289833068848,6.507298469543457 -9.907707214355469,4.629873275756836 A516.0592041015625,516.0592041015625 0 0 1 162.85751342773438,148.4282684326172 C158.620849609375,146.4013214111328 154.92691040039062,143.2501220703125 150.98931884765625,140.63612365722656 zM168.60609436035156,397.5331726074219 c4.7572503089904785,-2.248479127883911 8.368108749389648,-5.250143527984619 11.70206069946289,-8.728087425231934 c11.569145202636719,-12.073114395141602 16.614377975463867,-26.887601852416992 18.34781265258789,-43.1364631652832 c2.9075162410736084,-27.009441375732422 3.472405195236206,-54.0521125793457 1.0079389810562134,-81.11139678955078 c-1.3623790740966797,-14.952940940856934 -4.341890811920166,-29.54036521911621 -11.585760116577148,-42.892784118652344 a12.704462051391602,12.704462051391602 0 0 0 -4.984313488006592,-4.845860481262207 c-5.405211448669434,-2.8798255920410156 -10.943337440490723,-2.674914836883545 -15.750431060791016,1.3513028621673584 c-3.322875738143921,2.7690629959106445 -6.152858257293701,6.064248085021973 -9.209903717041016,9.115755081176758 C154.5115509033203,230.94635009765625 151.08900451660156,234.8230438232422 147.134765625,238.10162353515625 c-5.200300693511963,4.275433540344238 -11.043024063110352,4.275433540344238 -16.58115005493164,0.43751198053359985 a30.19940185546875,30.19940185546875 0 0 1 -5.200300693511963,-4.8957037925720215 c-4.3252763748168945,-4.8957037925720215 -8.362570762634277,-10.062775611877441 -12.842914581298828,-14.81448745727539 a31.966064453125,31.966064453125 0 0 0 -16.259939193725586,-9.414814949035645 c-3.943145751953125,-0.9137908220291138 -7.016806125640869,0.4928932189941406 -8.528714179992676,4.192361831665039 c-1.0024008750915527,2.458928108215332 -2.104487895965576,5.023080348968506 -2.348165512084961,7.614923477172852 c-1.0743964910507202,11.458383560180664 -2.641686201095581,22.9444580078125 -2.564152479171753,34.40837860107422 c0.13291501998901367,20.52983283996582 1.0467058420181274,41.07074737548828 2.1543312072753906,61.578426361083984 c0.9027145504951477,16.6752986907959 3.9542219638824463,33.05707550048828 7.7533769607543945,49.3336296081543 c2.054644823074341,8.77793025970459 5.898104190826416,15.872269630432129 13.25827407836914,21.044879913330078 c1.3513028621673584,0.9470195770263672 2.564152479171753,2.098949909210205 3.9874508380889893,3.2785706520080566 a7.243869304656982,7.243869304656982 0 0 0 0.182758167386055,-0.742108941078186 c0,-13.180740356445312 -0.2602919340133667,-26.367019653320312 0.14952941238880157,-39.53114318847656 a73.36355590820312,73.36355590820312 0 0 1 2.7967538833618164,-17.334335327148438 c2.0491068363189697,-7.277098178863525 7.487546920776367,-11.630064964294434 14.72033977508545,-13.623790740966797 c16.75836944580078,-4.690793037414551 33.73272705078125,4.807093620300293 37.465423583984375,21.74822235107422 c1.7112809419631958,7.7533769607543945 1.8663485050201416,15.8778076171875 2.2927842140197754,23.85824966430664 C168.13534545898438,375.7960510253906 168.2738037109375,386.3849182128906 168.60609436035156,397.5331726074219 zm-4.984313488006592,-20.269540786743164 c0.3987450897693634,-12.039886474609375 -0.6313464045524597,-21.294095993041992 -5.809494495391846,-29.606822967529297 a27.136817932128906,27.136817932128906 0 0 0 -32.99061965942383,-11.19255256652832 c-6.557141304016113,2.4755423069000244 -9.664031028747559,6.978039264678955 -9.675106048583984,13.845315933227539 q-0.03322875499725342,21.559925079345703 0,43.11431121826172 c0,0.8639476895332336 0.4596644639968872,2.0823354721069336 1.1076252460479736,2.53646183013916 c6.82850980758667,4.668640613555908 13.734552383422852,9.237594604492188 20.657211303710938,13.767782211303711 a2.6583006381988525,2.6583006381988525 0 0 0 2.0048017501831055,0.24921567738056183 c3.943145751953125,-1.26823091506958 7.919520378112793,-2.453389883041382 11.740827560424805,-4.026217937469482 c4.48588228225708,-1.8386578559875488 7.830910682678223,-4.840322017669678 9.453580856323242,-9.74156379699707 A69.98530578613281,69.98530578613281 0 0 0 163.62730407714844,377.2636413574219 zM151.84217834472656,55.26591110229492 c0,5.6599650382995605 0.5538126230239868,10.80488395690918 -0.1384531557559967,15.767045021057129 c-1.0411677360534668,7.282635688781738 2.708143711090088,10.926722526550293 8.489947319030762,13.590561866760254 a42.3555908203125,42.3555908203125 0 0 0 5.322139263153076,2.276170015335083 c6.330078601837158,1.9272679090499878 12.654618263244629,3.8766884803771973 19.067768096923828,5.538125991821289 c7.199563980102539,1.8165054321289062 13.983768463134766,4.4305009841918945 19.937253952026367,9.010531425476074 C222.48651123046875,115.19951629638672 234.81439208984375,132.85507202148438 241.21646118164062,154.56451416015625 c1.5119084119796753,5.150457382202148 2.425699234008789,10.472596168518066 3.727159023284912,16.1934814453125 c0.8971764445304871,-2.065721035003662 1.7500479221343994,-3.765925884246826 2.392470598220825,-5.538125991821289 c3.760387659072876,-10.444906234741211 2.24294114112854,-20.690439224243164 -1.4232983589172363,-30.780906677246094 c-4.535725116729736,-12.494012832641602 -11.762980461120605,-23.487194061279297 -19.56066131591797,-34.1148567199707 c-12.560470581054688,-17.129425048828125 -28.526887893676758,-29.307762145996094 -49.660377502441406,-33.94317626953125 c-7.686919212341309,-1.6614378690719604 -15.01939868927002,-4.3252763748168945 -21.53777313232422,-8.899768829345703 C154.20697021484375,56.79997634887695 153.22117614746094,56.17970275878906 151.84217834472656,55.26591110229492 zM121.28279876708984,55.16068649291992 c-9.016069412231445,6.811895370483398 -19.023462295532227,9.968626976013184 -29.141618728637695,12.69892406463623 C66.71564483642578,74.70474243164062 49.912967681884766,91.71786499023438 37.83431625366211,114.09188842773438 c-7.166335105895996,13.263813018798828 -8.146583557128906,27.36941909790039 -3.3782570362091064,41.75747299194336 c0.47074073553085327,1.4177602529525757 1.1076252460479736,2.7690629959106445 1.6614378690719604,4.164670944213867 a3.7825400829315186,3.7825400829315186 0 0 0 0.5870413780212402,-2.525385618209839 a39.276390075683594,39.276390075683594 0 0 1 1.6171329021453857,-15.013860702514648 c7.709071636199951,-25.181859970092773 23.747486114501953,-42.089759826660156 49.18963623046875,-49.6769905090332 c6.695594787597656,-1.9937254190444946 13.568408966064453,-3.51117205619812 20.08678436279297,-5.975638389587402 c4.303123950958252,-1.6226710081100464 8.168736457824707,-4.4637298583984375 12.095267295837402,-6.966962814331055 a4.120366096496582,4.120366096496582 0 0 0 1.5119084119796753,-2.9905881881713867 C121.36033630371094,69.8422622680664 121.28279876708984,62.842071533203125 121.28279876708984,55.16068649291992 zm141.33297729492188,160.32321166992188 l-0.4098213315010071,-0.2602919340133667 c-3.5665533542633057,5.216915130615234 -7.155259132385254,10.42275333404541 -10.683046340942383,15.661821365356445 c-12.183877944946289,18.070905685424805 -18.32012176513672,37.83094024658203 -16.271015167236328,59.7508430480957 c0.9470195770263672,10.073851585388184 2.3592419624328613,20.103397369384766 3.4613289833068848,30.166173934936523 c0.97471022605896,8.910844802856445 0.6922657489776611,17.666622161865234 -3.837921380996704,25.779977798461914 c-0.25475379824638367,0.4596644639968872 -0.4319738447666168,0.9636339545249939 -0.9082527160644531,2.0324923992156982 l1.3513028621673584,-1.1851590871810913 c12.305716514587402,-10.965489387512207 17.26787757873535,-25.253854751586914 18.61918067932129,-41.175968170166016 c1.3236122131347656,-15.589824676513672 2.669376850128174,-31.17411231994629 3.948683977127075,-46.763938903808594 c0.7531851530075073,-9.171136856079102 1.246078372001648,-18.369964599609375 2.165407419204712,-27.52448844909668 C260.6109619140625,226.4383087158203 261.7518310546875,220.97772216796875 262.6268615722656,215.48390197753906 zm-7.963825702667236,-122.5587387084961 c-1.6171329021453857,-15.506753921508789 -1.0079389810562134,-31.783306121826172 2.2152504920959473,-45.728309631347656 c2.4700043201446533,-10.755041122436523 5.416287422180176,-21.393781661987305 8.141045570373535,-32.0879020690918 c0.9248670339584351,-3.6274728775024414 -0.23813943564891815,-4.86801290512085 -3.8766884803771973,-4.0982136726379395 a22.473716735839844,22.473716735839844 0 0 0 -2.6195337772369385,0.8362570405006409 c-5.46613073348999,1.8995773792266846 -10.965489387512207,3.716082811355591 -16.381776809692383,5.765189170837402 a8.545329093933105,8.545329093933105 0 0 0 -3.8157689571380615,2.7690629959106445 c-10.029546737670898,14.177603721618652 -10.217843055725098,35.47723388671875 -0.32674944400787354,49.74898910522461 C243.32093811035156,77.80608367919922 249.01968383789062,85.22718048095703 254.66302490234375,92.9251708984375 zm-232.213623046875,0.17722003161907196 c3.2342658042907715,-4.801555633544922 6.352231025695801,-9.414814949035645 9.4425048828125,-14.02253532409668 c2.6527624130249023,-3.9652984142303467 5.792880058288574,-7.7146100997924805 7.830910682678223,-11.97896671295166 C47.1771354675293,51.51106262207031 47.83063507080078,36.004310607910156 37.99492263793945,20.91291618347168 a8.157659530639648,8.157659530639648 0 0 0 -4.884627342224121,-3.6053202152252197 C28.707483291625977,16.000597953796387 24.393281936645508,14.405617713928223 20.045854568481445,12.92140007019043 c-1.9992635250091553,-0.6756514310836792 -3.9542219638824463,-1.5562134981155396 -6.003328800201416,-1.9771109819412231 c-3.0127406120300293,-0.614732027053833 -4.1037516593933105,0.6867276430130005 -3.322875738143921,3.6662395000457764 C12.46415901184082,21.18428611755371 14.258511543273926,27.75250244140625 15.991944313049316,34.342872619628906 c4.984313488006592,18.885009765625 8.141045570373535,37.969390869140625 6.374383449554443,57.59651184082031 A8.451180458068848,8.451180458068848 0 0 0 22.44940185546875,93.1023941040039 zM16.972192764282227,219.73719787597656 c0.14399127662181854,1.3014596700668335 0.42089760303497314,3.112426996231079 0.5538126230239868,4.940008640289307 c1.7002047300338745,27.624174118041992 9.813559532165527,53.049713134765625 25.475379943847656,76.02185821533203 c4.297585964202881,6.296849250793457 7.869677543640137,13.086591720581055 11.774056434631348,19.64927101135254 c0.33228757977485657,0.5538126230239868 0.6811895370483398,1.1076252460479736 1.0190151929855347,1.6614378690719604 C51.16458511352539,284.5664978027344 40.82490539550781,249.34954833984375 16.972192764282227,219.73719787597656 zM151.84217834472656,119.9567642211914 c0,2.9130544662475586 -0.049843136221170425,5.826108932495117 0,8.733625411987305 c0.09968627244234085,4.7572503089904785 1.9438823461532593,8.728087425231934 6.175010681152344,11.009794235229492 c8.966226577758789,4.845860481262207 17.782922744750977,10.140308380126953 27.181123733520508,13.961615562438965 c16.6752986907959,6.7786664962768555 33.743804931640625,12.604775428771973 50.64616394042969,18.82962989807129 c1.1076252460479736,0.4153594672679901 2.2650938034057617,0.7974901795387268 3.400409460067749,1.1962352991104126 c-9.414814949035645,-8.766853332519531 -19.65481185913086,-16.309782028198242 -30.958126068115234,-22.152503967285156 c-12.815223693847656,-6.595908164978027 -25.990427017211914,-12.499550819396973 -39.05486297607422,-18.60256576538086 C162.59169006347656,129.8478546142578 156.22283935546875,126.46406555175781 151.84217834472656,119.9567642211914 zm-30.70890998840332,-0.7365708351135254 c-4.397272109985352,7.587233066558838 -10.976566314697266,11.358696937561035 -18.275815963745117,13.845315933227539 c-6.690056324005127,2.270631790161133 -13.524104118347168,4.18682336807251 -20.407995223999023,5.781803607940674 c-7.952749252319336,1.8441959619522095 -16.10487174987793,2.6970674991607666 -23.570266723632812,6.501760005950928 c-7.138644695281982,3.644087076187134 -12.543855667114258,8.982840538024902 -17.07958221435547,15.506753921508789 c7.675842761993408,-5.715346336364746 16.719602584838867,-6.0919389724731445 25.647064208984375,-7.127568244934082 c8.573019027709961,-1.0190151929855347 17.140501022338867,-2.2595555782318115 25.60829734802246,-3.937607765197754 c7.138644695281982,-1.4177602529525757 13.983768463134766,-3.9597601890563965 20.09786033630371,-8.091201782226562 c3.832383394241333,-2.5863049030303955 7.254945755004883,-5.704269886016846 7.875215530395508,-10.522439956665039 C121.5154037475586,127.49969482421875 121.13327026367188,123.72269439697266 121.13327026367188,119.2201919555664 z" id="svg_1"/><path d="M181.40469360351562,334.42071533203125 c-2.093411684036255,-9.093603134155273 -6.983576774597168,-15.323995590209961 -14.205293655395508,-19.987096786499023 c-6.834047794342041,-4.4305009841918945 -13.729015350341797,-8.711472511291504 -21.775911331176758,-10.42275333404541 c-8.251808166503906,-1.7500479221343994 -16.49254035949707,-1.1076252460479736 -24.54497528076172,1.4676034450531006 c-10.926722526550293,3.4890196323394775 -18.22597312927246,10.710736274719238 -22.401721954345703,21.598691940307617 c-0.8417952060699463,-4.845860481262207 -1.7500479221343994,-9.686182975769043 -2.5198476314544678,-14.543119430541992 c-1.9217298030853271,-12.183877944946289 -0.8861002326011658,-24.29022216796875 1.8331197500228882,-36.23041915893555 c3.693930149078369,-16.199018478393555 15.246461868286133,-26.3282527923584 31.98267936706543,-27.751550674438477 c9.553267478942871,-0.8141045570373535 19.150840759277344,-0.9636339545249939 28.08937644958496,3.7050063610076904 c10.062775611877441,5.25568151473999 17.00204849243164,13.429956436157227 21.820219039916992,23.453964233398438 c8.102278709411621,16.88020896911621 10.755041122436523,34.33638381958008 4.607720851898193,52.50697326660156 c-0.5538126230239868,1.6614378690719604 -1.3513028621673584,3.22318959236145 -2.0491068363189697,4.8237080574035645 C182.1080322265625,333.32415771484375 181.89759826660156,333.6010437011719 181.40469360351562,334.42071533203125 z" id="svg_2" fill="#790914"/></g></g></g></svg>