<svg xmlns="http://www.w3.org/2000/svg" width="437" height="379"><rect id="backgroundrect" width="100%" height="100%" x="0" y="0" fill="none" stroke="none" style="" class=""/><g class="currentLayer" style=""><title>Layer 1</title><g id="Capa_2" data-name="Capa 2" class=""><g id="Capa_1-2" data-name="Capa 1"><path fill="#790914" d="M390.0957365355571,379.2395739737549 h-2.278907060623169 a19.545425875544424,19.545425875544424 0 0 0 -2.9018082731490153,-0.6684794008272377 c-7.687513064235418,-0.6077085585550748 -15.38262265920639,-1.3293624520301819 -23.085328060467873,-1.7091802954673767 c-40.313865670601444,-1.9750527134289086 -80.62013336157725,-4.793301140710696 -120.95678717549526,-5.507358729839325 c-36.918293222983266,-0.6456903519543573 -73.89735869185097,0.5545340659072053 -110.81565771039459,1.8383184201916265 c-26.79994610563881,0.9343519093444002 -53.53912576095354,3.365185962453438 -80.30868574365013,5.005999292413435 c-1.6560058480973225,0.09875263567144543 -4.421079828009056,-0.46337777986005335 -4.808493839959283,-1.4433077869502142 c-0.5545340659072053,-1.4357114373259208 0.22029434285467886,-3.7222149381290137 1.0786826427616063,-5.3174498081207275 c1.6560058480973225,-3.0385427474975586 0.5621304155314988,-5.49976219910377 -2.863826525027548,-5.894773104012074 c-1.1394535303115845,-0.1291380681269807 -3.114506243740493,-0.6608830512029442 -3.1752770407348407,-1.1774352784330517 a53.82778523556408,53.82778523556408 0 0 1 -0.3190469785261243,-10.543743420749934 c0.1063489966151927,-1.223013466734443 1.9750527134289086,-2.2333289628774082 2.8410374761546677,-3.479131387929101 a5.438991402109423,5.438991402109423 0 0 0 0.9495446085929871,-2.6739176033089507 c0.1063489966151927,-2.4004488357231253 0,-4.808493839959283 0,-7.208942494571147 s-0.964737307841574,-3.8741419306148828 -3.56269141490759,-3.912123859847611 c-3.0385427474975586,-0.03798178490969217 -4.177996277809143,-2.013034642661637 -4.443868695770675,-4.648970316737859 a31.418532472769584,31.418532472769584 0 0 1 0,-4.930035433947978 c0.18231256077485014,-3.4183605909347534 1.9066855668102676,-5.249082480390825 5.446587932844977,-5.545340659072053 c5.264275179639412,-0.4405886857093577 5.902369272525107,-2.0586127404073977 2.7574776302874398,-6.411324878464029 c-0.37222149381290137,-0.5165522725079228 -0.7596356868743896,-1.0255081953915521 -1.131857180687291,-1.5192713737487793 c-2.62833950556319,-3.4335532901833403 -2.795459378408907,-6.836721181869507 0,-9.936034726361413 a10.505761491517205,10.505761491517205 0 0 0 2.180154334396093,-11.310975638359878 c-3.1069100752274608,-8.264836360126765 -6.175838221222193,-16.59804004798343 -10.01959439111738,-24.53623210648675 c-7.998963579942711,-16.48409498473029 -17.296904937863474,-32.37567216320804 -24.581811290900077,-49.15602460217451 C1.3065734031573015,198.44628049765015 -2.7194957010547114,177.16888908110195 1.9902454126774956,155.2002264076291 c5.6668822530607486,-26.41253318035615 20.464585810085282,-46.5200907392109 44.5070550098817,-58.75781922062197 C71.80076257332075,83.55898663308471 99.01851642052497,82.03971525933594 126.00076767269638,89.1954820387582 c16.711985111236572,4.428675996522088 32.535197859764594,12.336483380973277 48.75341861542074,18.709826330204578 c1.8079330216944527,0.7140575438508137 3.547498715659003,1.5952348699917138 5.613707624579433,2.529586779336114 c0,-1.0862789923858998 0.05317449830759635,-1.580042170743127 0,-2.066209090031691 c-2.810652077657494,-21.862315589845366 4.071647383069035,-34.10004552014652 24.30834197998047,-43.41318066398344 c0.9495446085929871,-0.4405886857093577 2.278907060623169,-1.3597478505273557 2.362466906490397,-2.164961635147506 c0.6304976074279551,-5.826405776282172 0.9875263567144543,-11.683196951061518 1.4585004861988011,-17.965383704801297 c-8.006560110678265,0.6153049081793682 -15.192713737487793,1.1698389288087583 -22.3560784965357,1.7015839458430833 c-4.223574375554904,0.3038542792775374 -4.390694429511882,-0.06836721453536398 -4.1172254808147954,-4.383097898776327 a81.94190362954214,81.94190362954214 0 0 0 0,-11.668003889590409 c-0.4026068923100752,-5.074366257920815 -0.2126979932303854,-5.438991402109423 5.005999292413435,-4.899650035450804 c0.7596356868743896,0.07596356981938435 1.5192713737487793,0.20510164360609195 2.278907060623169,0.2582761362539614 l19.097240704377327,1.1926280682372692 c-0.09875263567144543,-2.1573652855232126 -0.13673442907072797,-3.646251441886079 -0.2354870647421734,-5.135137417137685 c-0.41779963683647736,-6.077085494995117 -0.8052137846201504,-12.116189060757506 -1.3065734031573015,-18.170485687991004 c-0.2354870647421734,-2.810652077657494 0.7596356868743896,-3.9349127276092304 3.6690403096476985,-3.69182953963184 c3.0385427474975586,0.2582761362539614 6.077085494995117,0.1747162111505567 9.115628242492676,0.16711985020680942 c8.523112609575264,0 8.439552220374253,0 7.5963568687438965,8.675039602061133 c-0.5621304155314988,5.871983874027933 -0.8583883225458351,11.75916008508193 -1.314169752781595,18.23125648498535 c7.733091524203701,-0.5621304155314988 14.76731815852736,-1.0027191465186718 21.78635173137991,-1.5952348699917138 c4.945228495419087,-0.41779963683647736 5.226293612629206,0 4.702144945219175,4.831283069943424 a52.976991179863035,52.976991179863035 0 0 0 -0.060770853591616714,11.295782576888769 c0.5089559228836293,4.762915742213522 0.4026068923100752,5.157926284899304 -4.246363605539045,4.82368653920787 l-22.07501265488054,-1.580042170743127 c0.2962579070143363,5.226293612629206 0.7596356868743896,9.981613186329696 0.7596356868743896,14.736932035585141 c0,3.12969894298908 1.314169752781595,4.664163015986446 4.1703997470735885,5.88717657327652 c14.562216175337653,6.2518013552426055 23.20686965445657,17.182959874610333 24.77931529446414,33.12011478861132 c0.39501054268578173,4.026069285323274 -0.37222149381290137,8.166083633899689 -0.6229012578036617,12.594759630421777 c1.055893593888726,-0.37222149381290137 1.99784194341305,-0.6229012578036617 2.879019224276135,-1.0331045450158456 q12.214941786984582,-5.6668822530607486 24.40709543065259,-11.394535303115845 c27.194957010547114,-12.701108162939363 55.453405141830444,-16.947471768478408 85.01083249998192,-10.634899616241455 c26.777157962322235,5.742845749303683 46.5884580669408,20.821614061315813 59.45668266161192,44.81850552558899 c11.90349127127729,22.211747310340343 11.99464746676881,45.57814121246338 5.522551429087912,69.3243544069137 c-5.393413304363662,19.826491717199588 -14.858473629573837,37.84504968825968 -24.99201525727949,55.536965531031456 c-6.1150674242278455,10.680478076209738 -11.531269958575649,21.649617075920105 -15.002804815769196,33.49993263204851 c-1.3825369899558666,4.709741113732207 -1.4736932760030186,9.115628242492676 2.2409253125017017,13.111312129318776 c2.278907060623169,2.4688159823417664 1.9674563638046152,5.613707624579433 0.6304976074279551,8.553498008072438 c-0.6760757504515311,1.5192713737487793 -1.5952348699917138,2.8714228746518415 -2.4080451853474187,4.299537871797838 c-1.5876385203674204,2.78026667916032 -0.6760757504515311,4.155207047825002 2.3852561364745384,4.671759546722001 c6.13025976125391,1.0255081953915521 6.1226639549634,1.0862789923858998 6.077085494995117,7.193750157545082 c0,1.2609952148559103 0,2.529586779336114 0,3.7981784343719482 c-0.08355992510340471,2.879019224276135 -1.131857180687291,4.770512272949077 -4.390694429511882,5.104751656417989 c-1.1166644814387041,0.11394535755893997 -3.0385427474975586,1.298977053533008 -3.0385427474975586,2.013034642661637 c-0.06836721453536398,4.033665453836306 -2.559972177833288,8.583883406569612 2.164961635147506,11.857912811309006 c0.6988648446022268,0.4861668287329337 0.8280029240486613,2.0586127404073977 0.8887737210430089,3.144891642237667 c0.1291380681269807,2.278907060623169 0,4.557814121246338 0.045578140193712535,6.836721181869507 c0.06836721453536398,2.7194957010547114 -0.8128102248000744,4.246363605539045 -3.912123859847611,4.261556304787632 s-4.740126512229381,3.479131387929101 -2.613146806314603,5.552936827585086 C393.49128580093384,374.7273361391417 392.0935357367125,376.8619105646794 390.0957365355571,379.2395739737549 zM262.07431197166443,314.7389050193815 v0.9115628604715198 c6.836721181869507,0 13.673442363739014,0.11394535755893997 20.51016354560852,-0.08355992510340471 c1.56484947149454,-0.045578140193712535 3.099313544491906,-1.1546462295601714 4.648970316737859,-1.7699510924617243 c-0.5925158140286726,-1.4205187380773339 -0.9191592100958133,-3.0385427474975586 -1.8383184201916265,-4.223574375554904 c-3.0385427474975586,-3.7981784343719482 -3.342397094691819,-8.242047492365145 -0.18231256077485014,-12.116189060757506 c1.7243729947159636,-2.1193835374017453 4.2691524733006645,-3.5702875834206225 6.0315073972493565,-5.674478421573781 c2.195347214755941,-2.62833950556319 5.021191991662022,-5.378220605115075 5.735249580790651,-8.49272721107809 a354.49919619385764,354.49919619385764 0 0 1 19.849279860516162,-60.01121926307678 A140.88203958781742,140.88203958781742 0 0 0 325.88370966911316,194.07838688924312 c3.2892224662105036,-17.471620798110962 -3.577884114156177,-30.385427474975586 -19.325132279773698,-38.58189723181749 a96.12430051255251,96.12430051255251 0 0 0 -16.392938064793725,-6.836721181869507 a72.03625357723286,72.03625357723286 0 0 0 -40.427812182744674,-0.4709741294843468 c-2.278907060623169,0.6153049081793682 -4.443868695770675,2.6207431559388965 -6.039103565762389,4.504639492765023 s-2.514394080087527,4.504639492765023 -3.6994257081448723,6.836721181869507 c-0.9115628604715198,1.7851437917103112 -2.3548705568661035,3.5247094856748618 -2.559972177833288,5.393413304363662 c-1.3749405497759426,12.807458144347038 -2.5371831289604074,25.645299513856116 -3.6538476103991115,38.48314378114537 c-0.2582761362539614,2.992964649751798 0.9951227063387478,4.785704972197664 4.4514652265062296,4.299537871797838 c2.278907060623169,-0.3190469785261243 4.557814121246338,-0.1899089217185974 6.836721181869507,-0.4405886857093577 c14.433078050613403,-1.6104275692403007 28.866156101226807,-3.2056624392320145 43.29923415184021,-4.945228495419087 c3.425957121670308,-0.4102032872121839 4.284345172549251,0.7596356868743896 3.6842330088962854,3.9956838868261 a95.7140965461731,95.7140965461731 0 0 0 -0.14433077869502142,34.33553362627845 c0.7596356868743896,4.261556304787632 0.05317449830759635,4.75531957370049 -4.421079828009056,4.2691524733006645 c-16.089084079821987,-1.7395656939645505 -32.17057018001833,-3.5171133171618294 -48.27484732131143,-5.112348187153543 c-5.271871710374967,-0.5241486221322162 -5.940351201757835,0.1291380681269807 -5.438991402109423,5.3174498081207275 c1.2154171171101495,12.458024974961972 2.544779478584701,24.90845486807848 4.147610879311969,37.32090210751721 a16.56005739430566,16.56005739430566 0 0 0 3.1828735714703953,7.467218744019647 c2.9701756008789175,3.9349127276092304 3.342397094691819,7.75588039196532 1.0710862931373129,11.99464746676881 c-1.3673442001516491,2.559972177833288 -2.8714228746518415,5.074366257920815 -4.003280055339133,7.740687330494211 c-1.4129223884530404,3.357589793940406 -0.22789071511787995,5.0667700894077825 3.4183605909347534,5.104751656417989 C248.40086960792542,314.79208508120064 255.23759078979492,314.7389050193815 262.07431197166443,314.7389050193815 zm-87.49483864601461,0.6912684949779333 v-0.6153049081793682 c6.327765213708062,0 12.64793389668057,0.03798178490969217 18.99089217185974,0 c4.633777617489272,-0.03798178490969217 5.856791174779346,-1.8914928675616807 4.155207047825002,-6.297379815210888 c-1.2761879141044972,-3.296818996946058 -3.0385427474975586,-6.464499869167867 -3.858949231366296,-9.875263929367065 c-0.5393413213808032,-2.126979887026039 -0.6532867015786508,-5.157926284899304 0.4861668287329337,-6.745564986377985 a25.95675002956341,25.95675002956341 0 0 0 4.7173376444677615,-13.331605725089503 c1.0482972442644325,-11.455306100110192 2.3396778576175166,-22.88782260801372 3.6994257081448723,-34.312742585181695 c0.43299233608506427,-3.661444141134666 -1.0786826427616063,-4.838879238456457 -4.459061395019262,-4.557814121246338 c-2.278907060623169,0.19750527134289086 -4.557814121246338,0.1747162111505567 -6.836721181869507,0.41779963683647736 q-21.67240666812677,2.377659786850245 -43.29923415184021,4.8692646369536305 c-2.544779478584701,0.2962579070143363 -4.557814121246338,0.12154170718323343 -3.8969311605990242,-3.1524881729732215 a98.12214028263043,98.12214028263043 0 0 0 0,-36.19664163867674 c-0.4861668287329337,-2.666321253684657 0.5317449717565097,-3.7981784343719482 3.312011696194645,-3.410764060199199 c6.88229964183779,0.9039665108472263 13.7797908962566,1.8079330216944527 20.68487940585601,2.529586779336114 c9.936034726361413,1.040700894640139 19.87966598345838,1.929474615683148 29.82329579166526,2.863826525027548 c3.091717375978874,0.28866155739004284 4.75531957370049,-0.7976174349958569 4.557814121246338,-4.2691524733006645 c-0.4102032872121839,-7.831844250430777 -0.41779963683647736,-15.686476644178128 -0.9723336574658674,-23.50312855758284 c-0.5925158140286726,-8.355992555618286 -1.2761879141044972,-16.711985111236572 -7.5963568687438965,-23.252448838869896 a3.8513530628532635,3.8513530628532635 0 0 1 -0.9039665108472263,-2.0510163907831043 c-0.5849194644043791,-4.2007855077932845 -3.4715352194160687,-5.8340019447952045 -7.163364759047909,-6.783546915610714 c-21.78635173137991,-5.56053335832064 -41.86352316729244,-1.4357114373259208 -60.45180935239841,10.748844679494596 Q110.10159831015335,168.63818356301636 110.23073498598751,187.28724199400676 c0.09115628038742507,12.579566568950668 4.261556304787632,24.103239996790762 9.25236289795248,35.32305943965912 a353.2305943965912,353.2305943965912 0 0 1 20.601320465545086,61.355771878797896 c0.7140575438508137,2.9853683001275044 3.479131387929101,5.5833222260822595 5.62890032382802,8.074927438408167 c1.1926280682372692,1.3825369899558666 3.160084341486254,2.066209090031691 4.633777617489272,3.243644368464743 c4.557814121246338,3.676636840383253 5.0667700894077825,8.166083633899689 1.9218782660588545,13.027751740117765 c-0.8887737210430089,1.3749405497759426 -1.6028312196160073,3.7981784343719482 -0.964737307841574,4.95282466393212 s3.0385427474975586,2.0054382930373436 4.709741113732207,2.066209090031691 C162.20500729099876,315.566928318447 168.40363727776275,315.43017627630616 174.60226726452674,315.43017627630616 zM125.78047842359592,124.40460076183444 a9.616987679918566,9.616987679918566 0 0 0 -1.6863912465944964,-0.8280029240486613 c-11.88829820980618,-2.47641233196606 -23.814579073290133,-5.021191991662022 -36.05230900359129,-4.1703997470735885 c-21.717984403650007,1.5192713737487793 -36.74357736273578,12.465621505697527 -44.49186194841059,32.83145531400078 A83.45357702366528,83.45357702366528 0 0 0 41.77996277809143,207.73663329373085 C50.55375727971477,235.70642484818381 60.67210439705923,263.24321849738044 70.33466546583077,290.9395291497931 a14.547023113866544,14.547023113866544 0 0 0 3.7526003366261875,5.598514925330846 c5.3174498081207275,4.945228495419087 8.355992555618286,10.163925577312739 3.6158660433889054,17.152573751668115 a1.3217661024058884,1.3217661024058884 0 0 0 -0.12154170718323343,0.35702877192540683 c-1.1090681318144107,3.5323060164104163 -0.27346885814145594,4.854071937705044 3.380378661702025,4.671759546722001 c9.472657218168251,-0.4709741294843468 18.937717905600948,-1.1242608310629976 28.410375848214244,-1.6560058480973225 c2.5067977304632336,-0.14433077869502142 2.992964649751798,-1.5192713737487793 2.4004488357231253,-3.6006729819177963 a7.057015502085278,7.057015502085278 0 0 0 -1.3369588016544753,-2.7043030018061245 c-4.314730571046425,-4.861668468440598 -3.4031678916861665,-9.38909682896724 0.18231256077485014,-14.326729518095817 s4.307134402533393,-10.695670413235803 2.7043030018061245,-16.955068299213963 c-3.479131387929101,-13.605075036009111 -9.36630796120562,-26.161852012753116 -15.868789035161171,-38.47554869929991 c-5.849194644043791,-11.067891725937443 -11.835123943547387,-22.0294349193573 -15.25348453448214,-34.183605909347534 c-9.25995870424299,-32.99097811277716 2.863826525027548,-61.9179064598884 32.664334535598755,-77.42966579492895 C118.2980622714349,127.55708422591488 121.92152774333954,126.14416138468368 125.78047842359592,124.40460076183444 zm185.39668388398422,-0.7596356868743896 c0.5697267651557922,0.7976174349958569 0.6684794008272377,1.0938754325658238 0.8659846721701285,1.1774352784330517 c2.2029435643802344,0.9267555597201067 4.436272527257643,1.8079330216944527 6.646812260150909,2.7422847499275917 c11.797142014314659,4.983210062429293 22.5459874182543,11.500884560078475 30.63610864257862,21.67240666812677 s12.526392302691875,21.550865074138073 11.090681318144107,35.1027643949983 c-1.7851437917103112,16.833526705225268 -7.702706125706527,32.049028586029635 -15.648495439390445,46.74038288609154 c-8.424359883348188,15.564935050189433 -16.894297502219615,31.09948397743665 -21.26979923248291,48.49514236597224 c-1.4509041365745077,5.811213077033585 -1.0634899435130194,11.113470185905726 2.2333289628774082,15.952349424362183 c4.056454683820448,5.940351201757835 4.633777617489272,11.440113763084128 -0.22029434285467886,17.281711876392365 c-2.2029435643802344,2.643532204811777 -1.4129223884530404,4.071647383069035 2.013034642661637,4.352712500279154 c9.077646313259947,0.7596356868743896 18.16288915725545,1.3673442001516491 27.248131276805907,1.9446673149317348 c6.077085494995117,0.39501054268578173 6.487288736929486,0 4.345115969543599,-5.575726057569227 c-2.0206309922859305,-5.271871710374967 -1.4129223884530404,-9.525831484427044 2.5219904297118205,-13.863351285457611 A32.39846320430479,32.39846320430479 0 0 0 367.6636724472046,289.313897652406 c9.351115624179556,-25.371833100716685 18.656652063945785,-50.766454344749945 27.582372833609952,-76.29021226461737 c5.811213077033585,-16.61323310945454 6.737968455642431,-33.70503461523822 2.278907060623169,-50.80443265175745 c-4.709741113732207,-18.010961440324536 -14.828088955521707,-31.729982988476877 -32.70991372001208,-38.65785964139286 c-10.99952439820754,-4.261556304787632 -22.48521662125995,-4.557814121246338 -34.024083110571155,-3.213258969967569 C324.28847009022866,121.12296903079914 317.90753495693207,122.51310372871376 311.17717389870086,123.68294917752792 zM210.36590520238678,357.90901408650825 l-0.03798178490969217,0.6684794008272377 c-21.26979923248291,0.47857047910864026 -42.53959846496582,0.6153049081793682 -63.77141359488087,1.5192713737487793 c-30.089170020739402,1.2837843542844212 -60.14795391853659,3.144891642237667 -90.2219279800247,4.724933812980794 c-2.2181362636288213,0.11394535755893997 -3.745003805890633,0.7596356868743896 -3.56269141490759,3.312011696194645 c0.19750527134289086,2.7346884003032983 2.096594488528865,2.62833950556319 4.140014348576415,2.5067977304632336 c32.345288938046,-1.8079330216944527 64.68297989646635,-3.8513530628532635 97.04345899820328,-5.3174498081207275 c45.426213495532465,-2.028227341910224 90.8752151343815,-1.5724458211188335 136.28624136400322,0.44818503533365117 c29.701754197676564,1.314169752781595 59.36553008834562,3.479131387929101 89.04449614270561,5.3174498081207275 c2.415641534971712,0.14433077869502142 4.428675996522088,0 4.732530343716348,-2.9245973220218957 c0.33423970041361883,-3.2664335984488844 -2.210539914004528,-2.765073979911733 -4.124821649327828,-2.9018082731490153 c-14.774914689262914,-1.0103154961429652 -29.53463631705472,-2.332081507993223 -44.3171460881631,-2.9170009723976023 C293.84228196048934,360.71965221859864 252.10029169384507,359.3751053984379 210.36590520238678,357.90901408650825 zm-17.942595561484723,-28.493933339635078 A7.778669259726939,7.778669259726939 0 0 0 184.4699274187078,337.27730604913086 A7.9457893136839175,7.9457893136839175 0 0 0 192.18782877922058,345.0331799210908 A7.733091524203701,7.733091524203701 0 0 0 200.11842720476852,337.27730604913086 C200.19439540990425,332.4232228825276 197.25460901085899,329.4378601968492 192.42331398757233,329.41507205353264 zm25.614916288694076,-0.43299233608506427 c-4.732530343716348,-0.07596356981938435 -7.664724196473799,2.643532204811777 -7.824247719695222,7.2469244238038755 s2.9853683001275044,8.074927438408167 7.452026406993582,8.234450961629591 a7.953385844419472,7.953385844419472 0 0 0 8.188872501661308,-8.044542039910993 C225.95364433368377,332.248521511181 222.57325625419617,329.058042353412 218.01544213294983,328.9820741482763 zM174.48072277275787,337.7330920977038 c-0.060770853591616714,-4.557814121246338 -3.395571360950612,-7.923000445922298 -7.862229648927951,-7.862229648927951 a7.801458851933603,7.801458851933603 0 0 0 -7.679916533499863,7.6951095949709725 a7.900210853715635,7.900210853715635 0 0 0 7.801458851933603,8.021753172149374 C171.40419592269245,345.63329860474914 174.5490872027076,342.42763507884956 174.48072277275787,337.7330920977038 zm95.41024111231127,-7.869825455218461 c-4.778108441462109,-0.07596356981938435 -8.355992555618286,3.2512408992002975 -8.424359883348188,7.7938623211980484 a7.763476922700875,7.763476922700875 0 1 0 15.52695384540175,0.09875263567144543 C277.1150892988808,332.89421648147254 274.44878380187583,329.9392225320553 269.8909696806295,329.86325432691956 zm24.688159823417664,0.7976174349958569 c-4.557814121246338,0.060770853591616714 -7.5963568687438965,3.1221027744760477 -7.543182602485103,7.5963568687438965 a7.8470365874568415,7.8470365874568415 0 1 0 15.694073174913683,0 A7.801458851933603,7.801458851933603 0 0 0 294.57912950404716,330.6608857074825 zM56.44852603705658,342.397243160347 c0,4.557814121246338 3.3499932632048512,8.01415664141382 7.725494993468146,8.021753172149374 a7.75588039196532,7.75588039196532 0 0 0 7.778669259726939,-7.9913677736522 c0,-4.155207047825002 -3.2816262976974713,-7.664724196473799 -7.193750157545082,-7.740687330494211 C59.73774995215717,334.5881892265679 56.44852603705658,337.6419395244375 56.44852603705658,342.397243160347 zm315.6438122644395,8.454745281845362 c4.557814121246338,-0.08355992510340471 7.664724196473799,-3.6842330088962854 7.482411805490756,-8.599075743595677 c-0.1519271396387687,-4.109628950079241 -3.76019650513922,-7.170960565338419 -8.25723982939121,-7.003841235826485 a7.550778408775614,7.550778408775614 0 0 0 -7.307695220798223,7.968578181445537 A7.641935328712179,7.641935328712179 0 0 0 372.09233830149606,350.8519920644176 zM235.8516964063674,337.6950964040152 c0,4.253959774052078 3.0385427474975586,7.117786299079626 7.5963568687438965,7.193750157545082 a7.960981650709982,7.960981650709982 0 0 0 7.907807384451189,-8.01415664141382 a7.5963568687438965,7.5963568687438965 0 0 0 -7.740687330494211,-7.672320727209353 C239.16369687366387,329.20237498849747 235.859276999312,332.8030407259648 235.8516964063674,337.6950964040152 zM140.67693470684753,345.9447520182366 c4.664163015986446,0 8.14329476613807,-3.1828735714703953 8.226854430894036,-7.5963568687438965 a7.7938623211980484,7.7938623211980484 0 1 0 -15.580128111660542,-0.22789071511787995 C133.26288298463624,342.7770610037842 136.2026809748022,345.90675632454804 140.67693470684753,345.9447520182366 zm-50.66769799629765,2.765073979911733 c4.4666579257548165,-0.03798178490969217 7.786265790462494,-3.7981784343719482 7.664724196473799,-8.599075743595677 c-0.09875263567144543,-3.9349127276092304 -3.6538476103991115,-7.094997431318006 -7.923000445922298,-7.041823165059213 a7.8470365874568415,7.8470365874568415 0 0 0 -7.75588039196532,7.740687330494211 A7.983771242916646,7.983771242916646 0 0 0 90.00923091498953,348.70981386369385 zm230.44307084273896,-1.0103154961429652 c4.671759546722001,0.060770853591616714 7.7482838612297655,-3.12969894298908 7.938192782948363,-8.234450961629591 c0.1519271396387687,-4.109628950079241 -3.365185962453438,-7.421641008496408 -7.839440056721287,-7.38365907926368 a7.809054658224113,7.809054658224113 0 1 0 -0.09875263567144543,15.618109316448226 zm-204.87375402291946,-15.785230094850249 c-4.421079828009056,-0.07596356981938435 -8.006560110678265,3.198066270718982 -8.01415664141382,7.315291751533778 a8.158487103164134,8.158487103164134 0 0 0 7.7482838612297655,8.234450961629591 a7.801458851933603,7.801458851933603 0 0 0 7.953385844419472,-7.862229648927951 A7.5963568687438965,7.5963568687438965 0 0 0 115.5785651214901,331.914279954377 zm230.3974945561058,17.22853761013357 c4.603392218992099,0 7.976174712181091,-3.3879751924375796 7.923000445922298,-7.869825455218461 a7.5963568687438965,7.5963568687438965 0 0 0 -7.717898462732592,-7.679916533499863 a7.733091524203701,7.733091524203701 0 0 0 -7.869825455218461,7.9457893136839175 A7.315291751533778,7.315291751533778 0 0 0 345.97608285983733,349.1428117689502 z" id="svg_1"/></g></g></g></svg>