<svg xmlns="http://www.w3.org/2000/svg" width="400" height="419" style=""><rect id="backgroundrect" width="100%" height="100%" x="0" y="0" fill="none" stroke="none" style="" class=""/><g class="currentLayer" style=""><title>Layer 1</title><g id="Capa_2" data-name="Capa 2" class=""><g id="Capa_1-2" data-name="Capa 1"><path fill="#790914" d="M306.40775299072266,133.6524555683136 c-0.4083375036716461,4.177292346954346 -0.6900904178619385,8.37500286102295 -1.2250125408172607,12.535962104797363 C300.89928436279297,178.2878315448761 288.5143814086914,206.38962292671204 264.2673110961914,228.5133411884308 c-4.385544776916504,3.997624397277832 -9.493846893310547,7.211240291595459 -14.291812896728516,10.780110359191895 c-0.3593370020389557,0.2654193639755249 -0.7595077753067017,0.4818382263183594 -1.163761854171753,0.7350074648857117 c6.941737651824951,7.844163417816162 8.125916481018066,14.900237083435059 3.7975387573242188,21.80522346496582 c-4.263043403625488,6.802902698516846 -11.408949851989746,8.98342514038086 -20.731294631958008,6.267981052398682 L227.95384979248047,275.06381726264954 L233.38883209228516,277.9221851825714 c-0.9718433022499084,1.335263729095459 -1.6986839771270752,2.7399446964263916 -2.780778408050537,3.7648720741271973 C221.52254486083984,290.21313977241516 219.13785552978516,301.2790882587433 218.9214324951172,313.0392200946808 s0,23.516157150268555 -0.032666999846696854,35.27627944946289 c0,3.103365182876587 1.3883476257324219,5.581974029541016 3.0992817878723145,8.011582374572754 a40.06199645996094,40.06199645996094 0 0 1 7.3500752449035645,22.095144271850586 c0.12658463418483734,3.483119010925293 -0.6615067720413208,6.798819541931152 -2.678694009780884,9.657182693481445 c-3.36470103263855,4.769382476806641 -6.839653015136719,9.465263366699219 -10.35135555267334,14.124395370483398 c-4.49171257019043,5.973978042602539 -8.914008140563965,11.992873191833496 -11.960206031799316,19.191864013671875 c-0.3266700208187103,-0.6288397312164307 -0.5716724991798401,-1.0453439950942993 -0.7676745057106018,-1.4781818389892578 c-3.2421998977661133,-7.186740398406982 -7.974831581115723,-13.401637077331543 -12.715629577636719,-19.600200653076172 c-2.266273260116577,-2.968613624572754 -4.430461883544922,-6.018894672393799 -6.766152381896973,-8.930341720581055 c-4.900050163269043,-6.125062465667725 -5.749392032623291,-12.985132217407227 -3.8506228923797607,-20.39237403869629 c1.4332646131515503,-5.5738067626953125 3.4055347442626953,-10.894445419311523 7.043821811676025,-15.447408676147461 c2.744028091430664,-3.4341182708740234 2.9441134929656982,-7.562410831451416 2.976780414581299,-11.617202758789062 c0.09391763061285019,-10.878110885620117 0.15108488500118256,-21.756221771240234 -0.13883475959300995,-32.62616729736328 c-0.1184178814291954,-4.5162129402160645 -0.9555097818374634,-9.044675827026367 -1.833435297012329,-13.475137710571289 c-1.0698442459106445,-5.44313907623291 -3.773038625717163,-10.130853652954102 -7.497076988220215,-14.2550630569458 c-1.6578502655029297,-1.8375188112258911 -3.1278653144836426,-3.8506228923797607 -4.806132793426514,-5.937227249145508 l5.630974292755127,-2.788945198059082 c-1.3025966882705688,-2.3887743949890137 -2.5561928749084473,-4.6795477867126465 -3.8955399990081787,-7.137739658355713 c-4.683631420135498,1.8375188112258911 -9.306012153625488,1.9273529052734375 -13.830391883850098,-0.26950275897979736 a16.03541374206543,16.03541374206543 0 0 1 -7.227574348449707,-6.941737651824951 c-3.581120014190674,-6.615068435668945 -2.335690498352051,-13.589471817016602 3.6219534873962402,-20.135122299194336 c-0.1061677485704422,-0.14291812479496002 -0.17966850101947784,-0.34708690643310547 -0.3266700208187103,-0.4369211792945862 C138.7116928100586,226.8799946308136 124.11771011352539,208.2230579853058 114.37886142730713,185.56032299995422 C104.40317583084106,162.3626606464386 101.06297504901886,138.07883191108704 103.43133264780045,112.99058270454407 c2.347940683364868,-24.6268367767334 10.077770233154297,-47.367149353027344 24.520668029785156,-67.56352996826172 c12.499212265014648,-17.493179321289062 28.338624954223633,-30.804983139038086 48.84941864013672,-38.032554626464844 A81.29591369628906,81.29591369628906 0 0 1 197.04270935058594,3.0497896671295166 A16.108915328979492,16.108915328979492 0 0 0 198.82305908203125,2.702702760696411 h11.408949851989746 c1.4046810865402222,0.19191862642765045 2.805278778076172,0.4083375036716461 4.214043140411377,0.5716724991798401 c19.191864013671875,2.4051077365875244 35.82753372192383,10.48610782623291 50.013179779052734,23.454906463623047 c24.149080276489258,22.078807830810547 36.464542388916016,50.14793014526367 40.70716857910156,82.15750885009766 c0.5512556433677673,4.156876087188721 0.8166750073432922,8.350502014160156 1.2250125408172607,12.527795791625977 zM117.9803991317749,123.82786297798157 c0.9105926752090454,0 1.506765365600586,0.05716725438833237 2.094771385192871,0 c12.821798324584961,-1.380180835723877 25.651762008666992,-2.707277774810791 38.46131134033203,-4.21812629699707 c3.6750376224517822,-0.4369211792945862 7.525660514831543,-0.8411752581596375 10.878110885620117,-2.2540230751037598 c21.980810165405273,-9.26109504699707 43.84320068359375,-18.783525466918945 65.74234008789062,-28.236539840698242 c0.5390055179595947,-0.23275236785411835 1.0535107851028442,-0.5308387279510498 1.7027673721313477,-0.8656754493713379 c-24.030662536621094,-18.334354400634766 -44.03103256225586,-40.262081146240234 -61.74062728881836,-64.63166046142578 c-0.2368357628583908,0.1061677485704422 -0.7840080261230469,0.35117027163505554 -1.3230135440826416,0.6084228754043579 c-14.659317016601562,7.0234055519104 -26.068267822265625,17.754514694213867 -35.088443756103516,31.115318298339844 c-11.898954391479492,17.61976432800293 -18.138351440429688,37.240379333496094 -20.12287139892578,58.302433013916016 C118.2744026184082,117.0004551410675 118.18048286437988,120.3774082660675 117.9803991317749,123.82786297798157 zM245.82271575927734,140.3124439716339 c-0.6941738128662109,0.2531692683696747 -1.1310949325561523,0.4083375036716461 -1.5598492622375488,0.5675891637802124 q-11.551868438720703,4.49171257019043 -23.099653244018555,8.98342514038086 c-10.17577075958252,3.952707290649414 -10.2084379196167,3.915956735610962 -16.615253448486328,12.658462524414062 c-12.037789344787598,16.44375228881836 -21.776639938354492,34.218685150146484 -30.245559692382812,52.716373443603516 c-1.8252685070037842,3.989457607269287 -3.5239529609680176,8.031998634338379 -5.2389702796936035,11.947956085205078 c0.28175288438796997,0.3021697700023651 0.3593370020389557,0.4083375036716461 0.46958810091018677,0.4900050461292267 c22.15639305114746,12.572711944580078 44.815040588378906,13.822223663330078 67.98002624511719,2.968613624572754 a3.4259519577026367,3.4259519577026367 0 0 0 1.5516825914382935,-1.9191862344741821 q2.102938175201416,-6.590567111968994 3.989457607269287,-13.254634857177734 c3.491285800933838,-12.36854362487793 5.381888389587402,-24.96984100341797 4.928633689880371,-37.83246994018555 c-0.32258662581443787,-9.232511520385742 -1.0167604684829712,-18.452770233154297 -1.5516825914382935,-27.68120002746582 C246.24736785888672,146.7805073261261 246.02278900146484,143.6199848651886 245.82271575927734,140.3124439716339 zM164.81262588500977,224.67090344429016 c5.006217956542969,-10.290105819702148 9.624515533447266,-20.498544692993164 14.87573528289795,-30.368061065673828 s11.127197265625,-19.38786506652832 16.819421768188477,-29.212467193603516 L184.36383056640625,154.19592785835266 q-11.061863899230957,-9.938935279846191 -22.127809524536133,-19.86562156677246 c-2.9114463329315186,-2.6133601665496826 -4.381461143493652,-2.5684430599212646 -7.011155128479004,0.08983425050973892 c-4.49171257019043,4.532546520233154 -9.10184383392334,8.950758934020996 -13.507806777954102,13.569055557250977 C136.1024169921875,153.86108899116516 130.6143627166748,159.87590527534485 125.15488815307617,165.91521191596985 a2.989030599594116,2.989030599594116 0 0 0 -0.5185886025428772,2.4500250816345215 c5.373721599578857,16.741838455200195 13.822223663330078,31.670656204223633 26.039684295654297,44.37812042236328 A85.37520599365234,85.37520599365234 0 0 0 164.81262588500977,224.67090344429016 zM289.3065719604492,97.95559430122375 c-2.588859796524048,0.6165896654129028 -4.920467376708984,1.0249271392822266 -7.162240028381348,1.7272677421569824 c-5.986227989196777,1.8824360370635986 -11.539618492126465,4.671380996704102 -14.985987663269043,10.130853652954102 c-5.647307872772217,8.942591667175293 -10.963862419128418,18.097518920898438 -16.366167068481445,27.19527816772461 a4.287544250488281,4.287544250488281 0 0 0 -0.4083375036716461,2.3234405517578125 q1.0780110359191895,19.530784606933594 2.290773630142212,39.06156921386719 a5.345138072967529,5.345138072967529 0 0 0 1.294429898262024,2.997197389602661 c5.422721862792969,5.994394779205322 10.93527889251709,11.903038024902344 16.427417755126953,17.83209800720215 c0.3552536368370056,0.3838372528553009 0.755424439907074,0.7227573990821838 1.339347004890442,1.2740130424499512 C292.1036911010742,168.7449848651886 296.6321487426758,134.53447461128235 289.3065719604492,97.95559430122375 zM223.5233917236328,19.987630128860474 c0,6.823319435119629 -0.15516825020313263,13.409804344177246 0.05716725438833237,19.97995376586914 c0.13475137948989868,4.050708293914795 0.11025113612413406,8.330084800720215 1.4046810865402222,12.074540138244629 c3.4177849292755127,9.861351013183594 7.505242824554443,19.489948272705078 11.355866432189941,29.20021629333496 a3.7975387573242188,3.7975387573242188 0 0 0 1.1270115375518799,1.6333500146865845 c2.6868607997894287,1.9477699995040894 5.308387756347656,4.083375453948975 8.195334434509277,5.647307872772217 c7.370491981506348,4.0302910804748535 14.896151542663574,7.758412837982178 22.31972885131836,11.715203285217285 c1.0984278917312622,0.579839289188385 1.9028527736663818,0.6451732516288757 2.9114463329315186,-0.1061677485704422 c4.442712306976318,-3.3075342178344727 9.506096839904785,-5.1205525398254395 14.920653343200684,-6.047478675842285 c0.7227573990821838,-0.12250126153230667 1.425097942352295,-0.36342039704322815 2.646027088165283,-0.686007022857666 c-2.5071921348571777,-6.631401062011719 -4.618297576904297,-13.238301277160645 -7.448075771331787,-19.518531799316406 C272.7321548461914,55.4721577167511 260.72293853759766,40.049248933792114 243.57276153564453,29.011887788772583 A72.8637466430664,72.8637466430664 0 0 0 223.5233917236328,19.987630128860474 zM179.7618637084961,134.92647290229797 c24.349166870117188,15.970080375671387 66.6202621459961,-2.5847764015197754 73.78659057617188,-32.62616729736328 c-5.786142826080322,-0.5716724991798401 -11.498784065246582,-1.204595685005188 -17.223676681518555,-1.6864339113235474 a27.281028747558594,27.281028747558594 0 0 0 -13.454721450805664,2.335690498352051 c-6.5742340087890625,2.8583624362945557 -13.23421859741211,5.643224239349365 -20.053455352783203,7.840080738067627 c-6.218980312347412,2.004937171936035 -10.722943305969238,5.9249773025512695 -14.614399909973145,10.820943832397461 a80.850830078125,80.850830078125 0 0 0 -4.953134059906006,6.966238021850586 C181.95054626464844,130.61443066596985 180.90929412841797,132.8194477558136 179.7618637084961,134.92647290229797 zm0.3348367512226105,-113.35040283203125 c1.6333500146865845,6.65181827545166 39.16365432739258,48.285911560058594 48.616661071777344,54.0434684753418 c-2.1151883602142334,-5.586057186126709 -4.365128040313721,-11.163948059082031 -6.329231262207031,-16.839839935302734 c-1.1678452491760254,-3.3728678226470947 -2.470442056655884,-6.8641533851623535 -2.699111223220825,-10.371772766113281 C219.07251739501953,39.33466076850891 219.07251739501953,30.224652528762817 218.79891967773438,21.130975008010864 c-0.020416876301169395,-0.7880913615226746 0,-1.5720993280410767 0,-2.3520240783691406 C205.4299545288086,16.092089891433716 192.63265991210938,16.994515657424927 180.0967025756836,21.576062440872192 zm-57.60417938232422,139.65142822265625 L158.23022842407227,124.70170331001282 l-0.29808640480041504,-0.35117027163505554 L118.07023239135742,128.62583661079407 A135.1597137451172,135.1597137451172 0 0 0 122.49252700805664,161.2479145526886 zM244.42618560791016,226.85141491889954 a91.09193420410156,91.09193420410156 0 0 0 24.39408302307129,-22.613731384277344 l-16.4233341217041,-17.754514694213867 C251.83751678466797,200.52588391304016 248.6157455444336,213.52327466011047 244.42618560791016,226.85141491889954 z" id="svg_1"/></g></g></g></svg>